<?xml version="1.0" encoding="UTF-8"?>
<!DOCTYPE svg PUBLIC "-//W3C//DTD SVG 1.1//EN" "http://www.w3.org/Graphics/SVG/1.1/DTD/svg11.dtd">
<svg xmlns="http://www.w3.org/2000/svg" version="1.1" width="834px" height="834px" style="shape-rendering:geometricPrecision; text-rendering:geometricPrecision; image-rendering:optimizeQuality; fill-rule:evenodd; clip-rule:evenodd" xmlns:xlink="http://www.w3.org/1999/xlink">
<g><path style="opacity:0.984" fill="#fcfcfd" d="M 406.5,-0.5 C 413.167,-0.5 419.833,-0.5 426.5,-0.5C 434.958,2.06475 442.624,6.23142 449.5,12C 573.333,135.833 697.167,259.667 821,383.5C 826.769,390.376 830.935,398.042 833.5,406.5C 833.5,413.167 833.5,419.833 833.5,426.5C 830.935,434.958 826.769,442.624 821,449.5C 777,493.5 733,537.5 689,581.5C 690.556,589.523 692.556,597.523 695,605.5C 699.16,630.342 692.827,652.009 676,670.5C 675.667,695.167 675.333,719.833 675,744.5C 673.573,750.925 669.74,755.092 663.5,757C 651.833,757.667 640.167,757.667 628.5,757C 624.745,755.412 621.745,752.912 619.5,749.5C 612.167,748.167 604.833,748.167 597.5,749.5C 595.255,752.912 592.255,755.412 588.5,757C 576.833,757.667 565.167,757.667 553.5,757C 551.385,756.443 549.385,755.609 547.5,754.5C 545.615,755.609 543.615,756.443 541.5,757C 531.833,757.333 522.167,757.667 512.5,758C 489.442,781.726 465.775,804.726 441.5,827C 436.633,829.774 431.633,831.941 426.5,833.5C 419.833,833.5 413.167,833.5 406.5,833.5C 398.042,830.935 390.376,826.769 383.5,821C 359.5,797 335.5,773 311.5,749C 303.812,748.169 296.145,748.335 288.5,749.5C 286.255,752.912 283.255,755.412 279.5,757C 267.833,757.667 256.167,757.667 244.5,757C 239.986,755.82 236.653,753.154 234.5,749C 227.5,748.333 220.5,748.333 213.5,749C 211.304,753.097 207.971,755.763 203.5,757C 191.833,757.667 180.167,757.667 168.5,757C 163.427,755.594 159.927,752.428 158,747.5C 157.667,721.5 157.333,695.5 157,669.5C 140.173,651.007 133.839,629.34 138,604.5C 139.517,596.749 141.35,589.082 143.5,581.5C 99.847,537.347 56.0137,493.347 12,449.5C 6.23142,442.624 2.06475,434.958 -0.5,426.5C -0.5,419.833 -0.5,413.167 -0.5,406.5C 2.06475,398.042 6.23142,390.376 12,383.5C 136.167,259.333 260.333,135.167 384.5,11C 391.212,5.81213 398.545,1.97879 406.5,-0.5 Z"/></g>
<g><path style="opacity:1" fill="#0e0e0f" d="M 441.5,23.5 C 448.442,22.7923 452.442,25.7923 453.5,32.5C 462.944,35.0736 464.777,40.4069 459,48.5C 454.5,53 450,57.5 445.5,62C 443.248,61.9504 441.582,60.7837 440.5,58.5C 445.152,53.3481 449.985,48.3481 455,43.5C 455.494,41.8659 455.66,40.1992 455.5,38.5C 454.127,38.3433 452.793,38.51 451.5,39C 446.623,44.2128 441.456,49.0461 436,53.5C 434.225,52.7297 432.725,51.563 431.5,50C 436.667,44.8333 441.833,39.6667 447,34.5C 447.636,31.4783 446.47,29.9783 443.5,30C 438.5,35 433.5,40 428.5,45C 425.667,44.8333 424.167,43.3333 424,40.5C 429.729,34.603 435.562,28.9363 441.5,23.5 Z"/></g>
<g><path style="opacity:1" fill="#0e0e0f" d="M 388.5,31.5 C 390.167,31.5 391.833,31.5 393.5,31.5C 394.055,37.1535 394.555,42.8202 395,48.5C 396.903,46.559 397.736,44.2257 397.5,41.5C 399.5,41.5 401.5,41.5 403.5,41.5C 402.717,52.4608 397.051,56.6275 386.5,54C 379.961,50.0848 378.128,44.5848 381,37.5C 383.134,34.8474 385.634,32.8474 388.5,31.5 Z"/></g>
<g><path style="opacity:1" fill="#e9e9e9" d="M 387.5,38.5 C 389.174,41.5544 389.674,44.8877 389,48.5C 385.183,45.5804 384.683,42.2471 387.5,38.5 Z"/></g>
<g><path style="opacity:1" fill="#09090a" d="M 366.5,39.5 C 374.298,46.7975 381.965,54.2975 389.5,62C 387.866,62.4935 386.199,62.6602 384.5,62.5C 383.233,71.2602 378.233,74.7602 369.5,73C 362.985,69.7911 360.485,64.6245 362,57.5C 363.702,54.298 366.202,51.9647 369.5,50.5C 367.5,48.1667 365.5,45.8333 363.5,43.5C 364.524,42.1482 365.524,40.8149 366.5,39.5 Z"/></g>
<g><path style="opacity:1" fill="#224460" d="M 425.5,82.5 C 422.278,82.1081 419.278,82.6081 416.5,84C 419.146,84.4974 421.813,84.6641 424.5,84.5C 430.5,84.5 436.5,84.5 442.5,84.5C 440.848,88.3437 438.515,91.8437 435.5,95C 438.606,93.9349 441.273,91.9349 443.5,89C 444.448,88.5172 445.448,88.3505 446.5,88.5C 447.828,121.793 448.495,121.793 448.5,88.5C 453.179,90.6077 457.345,93.6077 461,97.5C 459.252,93.7174 456.586,90.3841 453,87.5C 452.26,86.2506 452.427,85.2506 453.5,84.5C 455.368,85.2632 457.035,86.2632 458.5,87.5C 473.5,103.167 488.833,118.5 504.5,133.5C 504.611,134.117 504.944,134.617 505.5,135C 499.118,148.344 493.451,161.844 488.5,175.5C 482.161,166.171 475.328,157.171 468,148.5C 467.999,142.321 465.166,140.321 459.5,142.5C 450.722,124.553 439.389,108.386 425.5,94C 422.607,92.8512 419.607,92.3512 416.5,92.5C 409.933,92.3671 404.767,95.0338 401,100.5C 390.07,113.365 380.903,127.365 373.5,142.5C 362.44,151.893 352.774,162.56 344.5,174.5C 339.58,160.751 334.246,147.085 328.5,133.5C 357.812,104.521 387.146,75.5211 416.5,46.5C 426.486,55.9857 436.319,65.6523 446,75.5C 446.483,76.448 446.649,77.448 446.5,78.5C 441.85,76.3714 437.85,73.2048 434.5,69C 433.833,68.3333 433.167,68.3333 432.5,69C 437.272,72.5819 440.606,77.0819 442.5,82.5C 436.833,82.5 431.167,82.5 425.5,82.5 Z"/></g>
<g><path style="opacity:1" fill="#0f1010" d="M 462.5,49.5 C 464.145,50.4787 465.479,51.812 466.5,53.5C 464.183,56.3174 461.683,58.9841 459,61.5C 455.894,67.2184 457.394,69.7184 463.5,69C 466.667,65.8333 469.833,62.6667 473,59.5C 474.5,61 476,62.5 477.5,64C 472.319,69.3484 466.985,74.515 461.5,79.5C 460.571,78.3112 460.238,76.9778 460.5,75.5C 451.546,73.3936 449.046,68.0602 453,59.5C 456.371,56.2975 459.538,52.9641 462.5,49.5 Z"/></g>
<g><path style="opacity:1" fill="#f7f7f7" d="M 369.5,56.5 C 377.148,55.6409 379.815,58.8075 377.5,66C 372.023,68.5946 368.689,66.928 367.5,61C 367.519,59.167 368.185,57.667 369.5,56.5 Z"/></g>
<g><path style="opacity:1" fill="#151617" d="M 484.5,60.5 C 490.488,60.664 491.821,63.164 488.5,68C 482.403,68.1475 481.07,65.6475 484.5,60.5 Z"/></g>
<g><path style="opacity:1" fill="#141415" d="M 458.5,87.5 C 457.035,86.2632 455.368,85.2632 453.5,84.5C 452.251,82.1715 452.918,80.3382 455.5,79C 457.201,78.6554 458.534,79.3221 459.5,81C 461.5,81.6667 463.5,81.6667 465.5,81C 469.833,76.6667 474.167,72.3333 478.5,68C 481.094,67.5507 483.094,68.5507 484.5,71C 479.5,76 474.5,81 469.5,86C 466.013,88.2952 462.346,88.7952 458.5,87.5 Z"/></g>
<g><path style="opacity:1" fill="#0e0e0f" d="M 346.5,72.5 C 352.146,77.479 357.479,82.8123 362.5,88.5C 360.955,89.4519 359.288,89.7852 357.5,89.5C 355.207,99.8845 349.207,102.718 339.5,98C 332.911,91.5913 332.911,85.258 339.5,79C 341.345,77.872 343.345,77.372 345.5,77.5C 345.366,75.7085 345.699,74.0418 346.5,72.5 Z"/></g>
<g><path style="opacity:1" fill="#09090a" d="M 482.5,77.5 C 492.699,76.043 498.032,80.3764 498.5,90.5C 493.121,90.7713 487.788,91.438 482.5,92.5C 484.023,94.2825 486.023,94.9492 488.5,94.5C 488.5,96.5 488.5,98.5 488.5,100.5C 478.217,100.043 474.051,94.7094 476,84.5C 477.694,81.6424 479.861,79.309 482.5,77.5 Z"/></g>
<g><path style="opacity:1" fill="#f1f1f2" d="M 344.5,82.5 C 351.009,83.207 353.176,86.5403 351,92.5C 344.741,95.593 341.408,93.593 341,86.5C 341.69,84.6498 342.856,83.3164 344.5,82.5 Z"/></g>
<g><path style="opacity:1" fill="#8396a7" d="M 425.5,82.5 C 425.167,83.1667 424.833,83.8333 424.5,84.5C 421.813,84.6641 419.146,84.4974 416.5,84C 419.278,82.6081 422.278,82.1081 425.5,82.5 Z"/></g>
<g><path style="opacity:1" fill="#e6e7e7" d="M 484.5,83.5 C 486.527,83.3379 488.527,83.5045 490.5,84C 490.957,84.414 491.291,84.914 491.5,85.5C 488.554,86.6548 485.554,86.8214 482.5,86C 483.381,85.2917 484.047,84.4584 484.5,83.5 Z"/></g>
<g><path style="opacity:1" fill="#f4f5f7" d="M 387.5,83.5 C 393.279,83.1117 395.779,85.7783 395,91.5C 391.952,95.0095 388.619,95.3428 385,92.5C 383.927,88.9003 384.76,85.9003 387.5,83.5 Z"/></g>
<g><path style="opacity:1" fill="#121313" d="M 502.5,89.5 C 503.947,90.6222 504.947,92.1222 505.5,94C 509.483,95.3147 511.983,97.8147 513,101.5C 512,102.5 511,103.5 510,104.5C 508.213,102.042 505.879,100.376 503,99.5C 499.213,102.284 495.713,105.451 492.5,109C 489.667,108.833 488.167,107.333 488,104.5C 493.037,99.6313 497.87,94.6313 502.5,89.5 Z"/></g>
<g><path style="opacity:1" fill="#fd5253" d="M 416.5,92.5 C 430.393,114.335 439.893,138.002 445,163.5C 450.737,193.579 453.737,223.913 454,254.5C 446.13,244.963 437.297,236.463 427.5,229C 421.982,226.422 416.315,225.922 410.5,227.5C 410.947,187.165 411.114,146.832 411,106.5C 410.716,104.114 409.716,103.448 408,104.5C 392.419,124.658 380.752,146.992 373,171.5C 370.143,181.642 368.476,191.975 368,202.5C 367.261,227.857 366.094,253.191 364.5,278.5C 364.5,279.5 364.5,280.5 364.5,281.5C 361.403,288.089 359.237,295.089 358,302.5C 356,342.162 354.167,381.829 352.5,421.5C 352.167,422.833 351.833,424.167 351.5,425.5C 350.518,422.038 350.185,418.371 350.5,414.5C 352.056,357.478 354.056,300.478 356.5,243.5C 356.833,230.167 357.167,216.833 357.5,203.5C 359.546,182.318 364.879,161.985 373.5,142.5C 380.903,127.365 390.07,113.365 401,100.5C 404.767,95.0338 409.933,92.3671 416.5,92.5 Z"/></g>
<g><path style="opacity:1" fill="#d95241" d="M 416.5,92.5 C 419.607,92.3512 422.607,92.8512 425.5,94C 439.389,108.386 450.722,124.553 459.5,142.5C 468.51,162.535 473.843,183.535 475.5,205.5C 475.846,222.525 476.512,239.525 477.5,256.5C 478.155,284.516 479.155,312.516 480.5,340.5C 480.5,341.5 480.5,342.5 480.5,343.5C 481.307,371.841 482.307,400.174 483.5,428.5C 481.935,426.491 480.935,424.157 480.5,421.5C 479.139,381.477 477.306,341.477 475,301.5C 472.189,285.55 465.856,271.217 456,258.5C 455.501,262.152 455.335,265.818 455.5,269.5C 447.773,258.936 438.773,249.436 428.5,241C 423.379,237.715 418.045,236.882 412.5,238.5C 411.833,238.5 411.167,238.5 410.5,238.5C 410.5,234.833 410.5,231.167 410.5,227.5C 416.315,225.922 421.982,226.422 427.5,229C 437.297,236.463 446.13,244.963 454,254.5C 453.737,223.913 450.737,193.579 445,163.5C 439.893,138.002 430.393,114.335 416.5,92.5 Z"/></g>
<g><path style="opacity:1" fill="#0f0f10" d="M 325.5,94.5 C 329.719,93.979 333.386,95.1457 336.5,98C 339.922,100.719 342.422,103.886 344,107.5C 342.981,108.687 341.814,109.687 340.5,110.5C 337.015,107.516 333.682,104.349 330.5,101C 324.609,100.638 323.109,103.138 326,108.5C 328.682,111.35 331.516,114.016 334.5,116.5C 333.5,118.167 332.167,119.5 330.5,120.5C 325.015,115.515 319.681,110.348 314.5,105C 315.563,103.812 316.897,103.312 318.5,103.5C 318.986,99.019 321.319,96.019 325.5,94.5 Z"/></g>
<g><path style="opacity:1" fill="#c64249" d="M 410.5,227.5 C 407.91,228.128 405.577,229.295 403.5,231C 386.598,243.725 373.598,259.559 364.5,278.5C 366.094,253.191 367.261,227.857 368,202.5C 368.476,191.975 370.143,181.642 373,171.5C 380.752,146.992 392.419,124.658 408,104.5C 409.716,103.448 410.716,104.114 411,106.5C 411.114,146.832 410.947,187.165 410.5,227.5 Z"/></g>
<g><path style="opacity:1" fill="#080809" d="M 516.5,126.5 C 514.097,126.448 511.764,126.781 509.5,127.5C 503.923,123.985 502.09,118.985 504,112.5C 508.128,105.511 513.961,103.678 521.5,107C 525.493,109.819 527.16,113.653 526.5,118.5C 521.135,118.867 515.802,119.533 510.5,120.5C 512.023,122.283 514.023,122.949 516.5,122.5C 516.5,123.833 516.5,125.167 516.5,126.5 Z"/></g>
<g><path style="opacity:1" fill="#090a0a" d="M 322.5,126.5 C 321.167,126.5 319.833,126.5 318.5,126.5C 317.833,126.5 317.167,126.5 316.5,126.5C 316.306,118.654 312.806,116.654 306,120.5C 304.757,126.026 306.924,129.026 312.5,129.5C 312.008,131.819 311.008,133.819 309.5,135.5C 300.461,132.422 297.627,126.422 301,117.5C 303.285,114.108 306.452,112.441 310.5,112.5C 310.238,111.022 310.571,109.689 311.5,108.5C 316.985,113.485 322.319,118.652 327.5,124C 325.256,124.05 323.589,124.883 322.5,126.5 Z"/></g>
<g><path style="opacity:1" fill="#e1e1e2" d="M 512.5,111.5 C 514.527,111.338 516.527,111.505 518.5,112C 518.957,112.414 519.291,112.914 519.5,113.5C 516.5,114.833 513.5,114.833 510.5,113.5C 511.243,112.818 511.909,112.151 512.5,111.5 Z"/></g>
<g><path style="opacity:1" fill="#f9f9f9" d="M 316.5,126.5 C 315.167,127.5 313.833,128.5 312.5,129.5C 306.924,129.026 304.757,126.026 306,120.5C 312.806,116.654 316.306,118.654 316.5,126.5 Z"/></g>
<g><path style="opacity:1" fill="#070809" d="M 284.5,120.5 C 290.158,119.679 291.825,121.846 289.5,127C 283.741,128.139 282.074,125.972 284.5,120.5 Z"/></g>
<g><path style="opacity:1" fill="#0c0d0d" d="M 528.5,144.5 C 526.562,140.957 524.895,137.29 523.5,133.5C 525.463,134.96 527.296,136.627 529,138.5C 529.09,135.538 527.757,133.204 525,131.5C 522.09,122.738 525.256,119.238 534.5,121C 537.683,124.015 540.683,127.182 543.5,130.5C 542.52,131.981 541.353,133.315 540,134.5C 537.5,132 535,129.5 532.5,127C 531.365,126.251 530.365,126.417 529.5,127.5C 532.647,130.305 534.98,133.639 536.5,137.5C 535.692,141.975 533.026,144.308 528.5,144.5 Z"/></g>
<g><path style="opacity:1" fill="#d5d5d7" d="M 316.5,126.5 C 317.167,126.5 317.833,126.5 318.5,126.5C 321.514,131.195 324.014,136.195 326,141.5C 332.79,164.786 337.79,188.452 341,212.5C 341.5,220.159 341.666,227.826 341.5,235.5C 338.833,235.5 336.167,235.5 333.5,235.5C 322.5,235.5 311.5,235.5 300.5,235.5C 311.321,234.505 322.321,234.172 333.5,234.5C 333.554,205.707 330.054,177.374 323,149.5C 321.566,145.618 319.4,142.285 316.5,139.5C 312.818,142.023 309.985,145.356 308,149.5C 295.438,177.206 290.605,205.873 293.5,235.5C 290.316,236.323 286.983,236.99 283.5,237.5C 285.09,213.219 289.756,189.552 297.5,166.5C 297.376,165.893 297.043,165.56 296.5,165.5C 299.747,159.099 302.413,152.433 304.5,145.5C 306.008,143.819 307.008,141.819 307.5,139.5C 308.674,138.486 309.34,137.153 309.5,135.5C 311.008,133.819 312.008,131.819 312.5,129.5C 313.833,128.5 315.167,127.5 316.5,126.5 Z"/></g>
<g><path style="opacity:1" fill="#121213" d="M 307.5,139.5 C 307.008,141.819 306.008,143.819 304.5,145.5C 299.188,140.854 294.188,135.854 289.5,130.5C 290.5,128.833 291.833,127.5 293.5,126.5C 298.187,130.855 302.854,135.188 307.5,139.5 Z"/></g>
<g><path style="opacity:1" fill="#f0f2f4" d="M 344.5,126.5 C 352.106,126.891 354.44,130.391 351.5,137C 345.818,140.07 342.152,138.57 340.5,132.5C 340.866,129.744 342.2,127.744 344.5,126.5 Z"/></g>
<g><path style="opacity:1" fill="#d5d6d8" d="M 516.5,126.5 C 517.167,126.5 517.5,126.833 517.5,127.5C 516.448,127.351 515.448,127.517 514.5,128C 518.491,133.964 521.324,140.464 523,147.5C 531.619,176.215 536.452,205.548 537.5,235.5C 534.5,235.5 531.5,235.5 528.5,235.5C 517.5,235.5 506.5,235.5 495.5,235.5C 506.321,234.505 517.321,234.172 528.5,234.5C 528.526,212.341 526.693,190.341 523,168.5C 521.6,158.966 518.6,149.966 514,141.5C 513.311,140.643 512.478,139.977 511.5,139.5C 506.195,144.091 502.362,149.758 500,156.5C 490.688,181.988 486.188,208.322 486.5,235.5C 487.833,235.5 489.167,235.5 490.5,235.5C 487.103,236.198 483.603,236.865 480,237.5C 479.51,236.207 479.343,234.873 479.5,233.5C 479.442,227.075 480.109,220.742 481.5,214.5C 481.137,213.817 480.804,213.15 480.5,212.5C 483.167,200.691 486.167,188.858 489.5,177C 488.944,176.617 488.611,176.117 488.5,175.5C 493.451,161.844 499.118,148.344 505.5,135C 504.944,134.617 504.611,134.117 504.5,133.5C 506.614,131.981 508.28,129.981 509.5,127.5C 511.764,126.781 514.097,126.448 516.5,126.5 Z"/></g>
<g><path style="opacity:1" fill="#0b0b0c" d="M 282.5,136.5 C 294.998,136.487 299.831,142.487 297,154.5C 292.467,160.673 286.967,161.839 280.5,158C 275.319,152.652 269.985,147.485 264.5,142.5C 265.5,140.833 266.833,139.5 268.5,138.5C 270.817,140.316 272.984,142.316 275,144.5C 277.028,141.308 279.528,138.641 282.5,136.5 Z"/></g>
<g><path style="opacity:1" fill="#dc8b8f" d="M 396.5,128.5 C 397.124,128.917 397.457,129.584 397.5,130.5C 392.047,142.911 388.547,155.911 387,169.5C 385.798,191.811 385.131,214.144 385,236.5C 380.967,240.868 376.634,244.868 372,248.5C 372.862,223.774 374.862,199.107 378,174.5C 382.317,158.372 388.484,143.039 396.5,128.5 Z"/></g>
<g><path style="opacity:1" fill="#fefefe" d="M 300.5,235.5 C 298.167,235.5 295.833,235.5 293.5,235.5C 290.605,205.873 295.438,177.206 308,149.5C 309.985,145.356 312.818,142.023 316.5,139.5C 319.4,142.285 321.566,145.618 323,149.5C 330.054,177.374 333.554,205.707 333.5,234.5C 322.321,234.172 311.321,234.505 300.5,235.5 Z"/></g>
<g><path style="opacity:1" fill="#fefefe" d="M 495.5,235.5 C 493.833,235.5 492.167,235.5 490.5,235.5C 489.167,235.5 487.833,235.5 486.5,235.5C 486.188,208.322 490.688,181.988 500,156.5C 502.362,149.758 506.195,144.091 511.5,139.5C 512.478,139.977 513.311,140.643 514,141.5C 518.6,149.966 521.6,158.966 523,168.5C 526.693,190.341 528.526,212.341 528.5,234.5C 517.321,234.172 506.321,234.505 495.5,235.5 Z"/></g>
<g><path style="opacity:1" fill="#eff0f0" d="M 284.5,142.5 C 291.463,142.765 293.63,146.098 291,152.5C 287.729,155.197 284.729,154.864 282,151.5C 280.779,147.718 281.613,144.718 284.5,142.5 Z"/></g>
<g><path style="opacity:1" fill="#fcfbfb" d="M 488.5,175.5 C 488.611,176.117 488.944,176.617 489.5,177C 486.167,188.858 483.167,200.691 480.5,212.5C 479.066,209.953 477.4,207.619 475.5,205.5C 473.843,183.535 468.51,162.535 459.5,142.5C 465.166,140.321 467.999,142.321 468,148.5C 475.328,157.171 482.161,166.171 488.5,175.5 Z"/></g>
<g><path style="opacity:1" fill="#fcfbfb" d="M 373.5,142.5 C 364.879,161.985 359.546,182.318 357.5,203.5C 355.863,205.475 354.196,207.475 352.5,209.5C 349.598,198.006 346.931,186.34 344.5,174.5C 352.774,162.56 362.44,151.893 373.5,142.5 Z"/></g>
<g><path style="opacity:1" fill="#09090a" d="M 550.5,145.5 C 560.699,144.043 566.032,148.376 566.5,158.5C 561.135,158.867 555.802,159.533 550.5,160.5C 552.023,162.283 554.023,162.949 556.5,162.5C 556.5,164.5 556.5,166.5 556.5,168.5C 546.217,168.043 542.051,162.709 544,152.5C 545.694,149.642 547.861,147.309 550.5,145.5 Z"/></g>
<g><path style="opacity:1" fill="#e7e8e8" d="M 552.5,151.5 C 554.527,151.338 556.527,151.505 558.5,152C 558.957,152.414 559.291,152.914 559.5,153.5C 556.554,154.655 553.554,154.821 550.5,154C 551.381,153.292 552.047,152.458 552.5,151.5 Z"/></g>
<g><path style="opacity:1" fill="#101010" d="M 264.5,154.5 C 267.649,154.211 270.649,154.711 273.5,156C 277.167,159.667 280.833,163.333 284.5,167C 283.315,168.353 281.981,169.52 280.5,170.5C 277.349,167.85 274.349,165.016 271.5,162C 267.744,159.457 265.911,160.29 266,164.5C 269.5,168 273,171.5 276.5,175C 275.315,176.353 273.981,177.52 272.5,178.5C 268.686,175.52 265.019,172.354 261.5,169C 258.333,168.167 257.167,169.333 258,172.5C 261.5,176 265,179.5 268.5,183C 267.275,184.563 265.775,185.73 264,186.5C 258.658,182.157 253.658,177.49 249,172.5C 248.812,170.939 249.645,170.272 251.5,170.5C 251.949,165.596 254.615,162.929 259.5,162.5C 260.166,159.16 261.833,156.493 264.5,154.5 Z"/></g>
<g><path style="opacity:1" fill="#131314" d="M 570.5,157.5 C 571.85,158.483 572.85,159.816 573.5,161.5C 581.837,164.948 583.671,170.615 579,178.5C 575.985,181.683 572.818,184.683 569.5,187.5C 567.833,186.5 566.5,185.167 565.5,183.5C 568.484,180.015 571.651,176.682 575,173.5C 575.833,169 574,167.167 569.5,168C 566.318,171.349 562.985,174.516 559.5,177.5C 557.833,176.5 556.5,175.167 555.5,173.5C 560.522,168.146 565.522,162.813 570.5,157.5 Z"/></g>
<g><path style="opacity:1" fill="#204360" d="M 296.5,165.5 C 297.043,165.56 297.376,165.893 297.5,166.5C 289.756,189.552 285.09,213.219 283.5,237.5C 283.5,238.5 283.5,239.5 283.5,240.5C 283.61,247.291 282.944,253.957 281.5,260.5C 258.083,296.309 236.916,333.643 218,372.5C 216.989,373.337 215.822,373.67 214.5,373.5C 214.663,375.857 214.497,378.19 214,380.5C 191.728,428.146 172.894,477.146 157.5,527.5C 120.167,490.833 83.1667,453.833 46.5,416.5C 129.854,332.812 213.188,249.146 296.5,165.5 Z"/></g>
<g><path style="opacity:1" fill="#204360" d="M 537.5,167.5 C 564.299,193.798 590.965,220.298 617.5,247C 615.389,255.556 618.555,258.722 627,256.5C 642.035,271.702 657.201,286.702 672.5,301.5C 672.833,303.833 674.167,305.167 676.5,305.5C 713.146,342.479 749.812,379.479 786.5,416.5C 777.514,425.986 768.348,435.319 759,444.5C 759.212,439.039 756.712,436.872 751.5,438C 749.552,443.404 751.552,446.071 757.5,446C 728.986,474.68 700.32,503.18 671.5,531.5C 640.471,440.782 600.804,354.116 552.5,271.5C 551.924,236.228 546.924,201.561 537.5,167.5 Z"/></g>
<g><path style="opacity:1" fill="#0a0a0b" d="M 241.5,177.5 C 254.018,177.505 258.851,183.505 256,195.5C 252.212,200.153 247.378,201.653 241.5,200C 235.092,196.677 232.925,191.511 235,184.5C 236.694,181.642 238.861,179.309 241.5,177.5 Z"/></g>
<g><path style="opacity:1" fill="#f8f8f8" d="M 242.5,183.5 C 250.52,183.392 252.854,186.892 249.5,194C 240.802,194.773 238.468,191.273 242.5,183.5 Z"/></g>
<g><path style="opacity:1" fill="#111112" d="M 599.5,182.5 C 608.306,182.142 613.306,186.309 614.5,195C 611.256,203.585 605.756,210.418 598,215.5C 592.754,213.647 592.421,211.314 597,208.5C 595.569,204.876 593.069,201.876 589.5,199.5C 587.851,200.648 586.351,201.981 585,203.5C 583.437,202.275 582.27,200.775 581.5,199C 586.457,192.203 592.457,186.703 599.5,182.5 Z"/></g>
<g><path style="opacity:1" fill="#151516" d="M 220.5,185.5 C 228.411,191.906 235.911,198.906 243,206.5C 242.833,209.333 241.333,210.833 238.5,211C 231.667,204.167 224.833,197.333 218,190.5C 218.058,188.565 218.891,186.898 220.5,185.5 Z"/></g>
<g><path style="opacity:1" fill="#f8f8f8" d="M 598.5,189.5 C 605.493,187.996 608.327,190.663 607,197.5C 606.027,199.64 604.527,201.307 602.5,202.5C 599.5,200.167 596.833,197.5 594.5,194.5C 595.857,192.814 597.19,191.148 598.5,189.5 Z"/></g>
<g><path style="opacity:1" fill="#0b0b0c" d="M 218.5,201.5 C 229.155,202.319 233.655,207.985 232,218.5C 227.672,225.696 221.838,227.196 214.5,223C 206.892,214.076 208.225,206.91 218.5,201.5 Z"/></g>
<g><path style="opacity:1" fill="#1f2532" d="M 357.5,203.5 C 357.167,216.833 356.833,230.167 356.5,243.5C 354.636,232.37 353.303,221.036 352.5,209.5C 354.196,207.475 355.863,205.475 357.5,203.5 Z"/></g>
<g><path style="opacity:1" fill="#1f2431" d="M 475.5,205.5 C 477.4,207.619 479.066,209.953 480.5,212.5C 480.804,213.15 481.137,213.817 481.5,214.5C 480.109,220.742 479.442,227.075 479.5,233.5C 478.532,235.607 478.198,237.941 478.5,240.5C 478.821,246.026 478.488,251.36 477.5,256.5C 476.512,239.525 475.846,222.525 475.5,205.5 Z"/></g>
<g><path style="opacity:1" fill="#0c0c0d" d="M 614.5,223.5 C 615.209,224.404 616.209,224.737 617.5,224.5C 617.5,226.167 617.5,227.833 617.5,229.5C 611.41,230.349 607.244,227.683 605,221.5C 604.017,213.143 607.684,208.143 616,206.5C 624.39,207.392 628.224,212.059 627.5,220.5C 622.141,220.67 616.808,221.17 611.5,222C 612.244,223.039 613.244,223.539 614.5,223.5 Z"/></g>
<g><path style="opacity:1" fill="#f5f5f5" d="M 217.5,208.5 C 225.489,207.317 228.156,210.484 225.5,218C 220.316,220.574 216.983,219.074 215.5,213.5C 215.902,211.7 216.569,210.033 217.5,208.5 Z"/></g>
<g><path style="opacity:1" fill="#0c0c0d" d="M 198.5,211.5 C 199.833,211.5 201.167,211.5 202.5,211.5C 202.357,213.262 202.691,214.929 203.5,216.5C 194.347,219.458 191.847,225.124 196,233.5C 204.588,238.294 210.421,235.961 213.5,226.5C 215.071,227.309 216.738,227.643 218.5,227.5C 217.44,236.726 212.274,241.726 203,242.5C 189.23,239.628 184.897,231.628 190,218.5C 192.441,215.546 195.275,213.213 198.5,211.5 Z"/></g>
<g><path style="opacity:1" fill="#f1f1f2" d="M 614.5,212.5 C 616.827,212.247 618.827,212.914 620.5,214.5C 617.843,215.259 615.177,215.926 612.5,216.5C 612.167,216.167 611.833,215.833 611.5,215.5C 612.34,214.265 613.34,213.265 614.5,212.5 Z"/></g>
<g><path style="opacity:1" fill="#0c0c0d" d="M 631.5,219.5 C 633.176,220.183 633.843,221.517 633.5,223.5C 637.711,224.193 641.045,226.36 643.5,230C 642.5,231 641.5,232 640.5,233C 638.074,231.967 635.574,230.8 633,229.5C 631.373,229.625 629.873,230.125 628.5,231C 625.984,233.683 623.317,236.183 620.5,238.5C 619.019,237.52 617.685,236.353 616.5,235C 621.703,229.965 626.703,224.798 631.5,219.5 Z"/></g>
<g><path style="opacity:1" fill="#6b6d70" d="M 614.5,223.5 C 615.833,223.5 617.167,223.5 618.5,223.5C 618.795,225.735 618.461,227.735 617.5,229.5C 617.5,227.833 617.5,226.167 617.5,224.5C 616.209,224.737 615.209,224.404 614.5,223.5 Z"/></g>
<g><path style="opacity:1" fill="#b64b38" d="M 410.5,227.5 C 410.5,231.167 410.5,234.833 410.5,238.5C 387.662,252.823 371.995,272.823 363.5,298.5C 364.032,292.848 364.365,287.181 364.5,281.5C 364.5,280.5 364.5,279.5 364.5,278.5C 373.598,259.559 386.598,243.725 403.5,231C 405.577,229.295 407.91,228.128 410.5,227.5 Z"/></g>
<g><path style="opacity:1" fill="#0a0b0b" d="M 640.5,234.5 C 651.833,233.998 656.666,239.331 655,250.5C 651.677,256.908 646.511,259.075 639.5,257C 633.673,253.867 631.507,249.034 633,242.5C 635.028,239.308 637.528,236.641 640.5,234.5 Z"/></g>
<g><path style="opacity:1" fill="#919395" d="M 293.5,235.5 C 295.833,235.5 298.167,235.5 300.5,235.5C 311.5,235.5 322.5,235.5 333.5,235.5C 333.5,236.167 333.5,236.833 333.5,237.5C 319.076,237.012 304.742,237.679 290.5,239.5C 288.194,239.993 285.861,240.326 283.5,240.5C 283.5,239.5 283.5,238.5 283.5,237.5C 286.983,236.99 290.316,236.323 293.5,235.5 Z"/></g>
<g><path style="opacity:1" fill="#919294" d="M 479.5,233.5 C 479.343,234.873 479.51,236.207 480,237.5C 483.603,236.865 487.103,236.198 490.5,235.5C 492.167,235.5 493.833,235.5 495.5,235.5C 506.5,235.5 517.5,235.5 528.5,235.5C 528.5,236.167 528.5,236.833 528.5,237.5C 516.829,237.333 505.162,237.5 493.5,238C 491.08,238.29 488.746,238.79 486.5,239.5C 483.794,239.575 481.127,239.908 478.5,240.5C 478.198,237.941 478.532,235.607 479.5,233.5 Z"/></g>
<g><path style="opacity:1" fill="#fefefe" d="M 333.5,237.5 C 333.5,237.833 333.5,238.167 333.5,238.5C 333.5,271.833 333.5,305.167 333.5,338.5C 323.652,338.173 313.986,338.506 304.5,339.5C 299.819,339.669 295.152,340.002 290.5,340.5C 290.5,306.833 290.5,273.167 290.5,239.5C 304.742,237.679 319.076,237.012 333.5,237.5 Z"/></g>
<g><path style="opacity:1" fill="#fefefe" d="M 528.5,237.5 C 528.5,237.833 528.5,238.167 528.5,238.5C 528.5,271.833 528.5,305.167 528.5,338.5C 517.654,338.172 506.987,338.506 496.5,339.5C 493.833,339.5 491.167,339.5 488.5,339.5C 486.507,306.517 485.84,273.183 486.5,239.5C 488.746,238.79 491.08,238.29 493.5,238C 505.162,237.5 516.829,237.333 528.5,237.5 Z"/></g>
<g><path style="opacity:1" fill="#d5d5d7" d="M 333.5,238.5 C 336.5,238.5 339.5,238.5 342.5,238.5C 344.111,272.145 345.111,305.811 345.5,339.5C 341.5,339.5 337.5,339.5 333.5,339.5C 323.833,339.5 314.167,339.5 304.5,339.5C 313.986,338.506 323.652,338.173 333.5,338.5C 333.5,305.167 333.5,271.833 333.5,238.5 Z"/></g>
<g><path style="opacity:1" fill="#c6c6c9" d="M 318.5,126.5 C 319.833,126.5 321.167,126.5 322.5,126.5C 324.529,128.858 326.529,131.192 328.5,133.5C 334.246,147.085 339.58,160.751 344.5,174.5C 346.931,186.34 349.598,198.006 352.5,209.5C 353.303,221.036 354.636,232.37 356.5,243.5C 354.056,300.478 352.056,357.478 350.5,414.5C 349.515,418.634 349.182,422.968 349.5,427.5C 349.672,428.492 349.338,429.158 348.5,429.5C 348.088,400.494 347.421,371.494 346.5,342.5C 342.167,342.5 337.833,342.5 333.5,342.5C 333.5,342.167 333.5,341.833 333.5,341.5C 333.5,340.833 333.5,340.167 333.5,339.5C 337.5,339.5 341.5,339.5 345.5,339.5C 345.111,305.811 344.111,272.145 342.5,238.5C 339.5,238.5 336.5,238.5 333.5,238.5C 333.5,238.167 333.5,237.833 333.5,237.5C 333.5,236.833 333.5,236.167 333.5,235.5C 336.167,235.5 338.833,235.5 341.5,235.5C 341.666,227.826 341.5,220.159 341,212.5C 337.79,188.452 332.79,164.786 326,141.5C 324.014,136.195 321.514,131.195 318.5,126.5 Z"/></g>
<g><path style="opacity:1" fill="#dbdcdd" d="M 410.5,238.5 C 411.167,238.5 411.833,238.5 412.5,238.5C 418.749,239.572 423.916,242.572 428,247.5C 443.549,269.14 450.716,293.14 449.5,319.5C 440.091,313.477 429.758,310.477 418.5,310.5C 418.5,316.833 418.5,323.167 418.5,329.5C 431.572,330.705 442.905,335.705 452.5,344.5C 452.5,344.833 452.5,345.167 452.5,345.5C 452.66,347.199 452.494,348.866 452,350.5C 441.919,339.527 429.419,334.527 414.5,335.5C 414.5,333.833 414.5,332.167 414.5,330.5C 413.167,330.5 411.833,330.5 410.5,330.5C 412.265,329.539 414.265,329.205 416.5,329.5C 417.123,322.745 416.456,316.412 414.5,310.5C 414.83,294.991 414.496,279.658 413.5,264.5C 413.666,260.154 413.499,255.821 413,251.5C 411.053,247.443 407.886,245.943 403.5,247C 396.136,253.182 390.136,260.349 385.5,268.5C 376.174,280.604 370.008,294.27 367,309.5C 366.66,320.841 366.16,332.175 365.5,343.5C 365.503,346.025 365.837,348.359 366.5,350.5C 365.083,353.998 364.417,357.665 364.5,361.5C 367.5,361.5 370.5,361.5 373.5,361.5C 370.713,362.477 367.713,362.81 364.5,362.5C 362.687,415.188 360.354,467.855 357.5,520.5C 357.589,524.028 358.256,527.362 359.5,530.5C 357.836,533.897 357.003,537.564 357,541.5C 356.645,551.341 356.145,561.175 355.5,571C 354.602,576.137 356.602,578.637 361.5,578.5C 361.47,552.191 366.304,526.858 376,502.5C 385.122,488.024 398.289,481.691 415.5,483.5C 415.002,436.168 414.669,388.835 414.5,341.5C 429.017,340.248 441.517,344.581 452,354.5C 452.701,401.108 452.534,447.775 451.5,494.5C 440.652,488.59 432.652,491.256 427.5,502.5C 427.667,502.833 427.833,503.167 428,503.5C 431.855,496.812 437.355,494.478 444.5,496.5C 442.278,496.178 440.444,496.845 439,498.5C 436.66,502.521 435.326,506.854 435,511.5C 433.537,536.836 432.037,562.17 430.5,587.5C 428.167,587.5 425.833,587.5 423.5,587.5C 423.5,580.5 423.5,573.5 423.5,566.5C 423.841,541.83 424.008,517.163 424,492.5C 420.509,486.339 416.509,486.006 412,491.5C 411.5,505.496 411.333,519.496 411.5,533.5C 411.787,552.168 412.121,570.834 412.5,589.5C 410.167,589.5 407.833,589.5 405.5,589.5C 392.5,589.5 379.5,589.5 366.5,589.5C 361.167,589.5 355.833,589.5 350.5,589.5C 351.12,534.787 352.787,480.121 355.5,425.5C 355.5,422.167 355.5,418.833 355.5,415.5C 357.444,380.847 359.277,346.18 361,311.5C 361.9,307.166 362.734,302.832 363.5,298.5C 371.995,272.823 387.662,252.823 410.5,238.5 Z"/></g>
<g><path style="opacity:1" fill="#c9c8cb" d="M 412.5,238.5 C 418.045,236.882 423.379,237.715 428.5,241C 438.773,249.436 447.773,258.936 455.5,269.5C 464.025,282.232 469.525,296.232 472,311.5C 473.746,346.179 475.58,380.846 477.5,415.5C 477.5,418.833 477.5,422.167 477.5,425.5C 480.427,480.207 482.094,534.874 482.5,589.5C 478.833,589.5 475.167,589.5 471.5,589.5C 458.5,589.5 445.5,589.5 432.5,589.5C 429.167,589.5 425.833,589.5 422.5,589.5C 422.175,581.648 422.508,573.982 423.5,566.5C 423.5,573.5 423.5,580.5 423.5,587.5C 425.833,587.5 428.167,587.5 430.5,587.5C 443.833,587.5 457.167,587.5 470.5,587.5C 471.594,565.128 469.427,543.128 464,521.5C 461.148,512.955 456.648,505.455 450.5,499C 448.593,497.878 446.593,497.045 444.5,496.5C 437.355,494.478 431.855,496.812 428,503.5C 427.833,503.167 427.667,502.833 427.5,502.5C 432.652,491.256 440.652,488.59 451.5,494.5C 452.534,447.775 452.701,401.108 452,354.5C 441.517,344.581 429.017,340.248 414.5,341.5C 398.639,343.017 386.139,350.35 377,363.5C 380.953,351.875 388.786,343.709 400.5,339C 405.184,337.347 409.85,336.181 414.5,335.5C 429.419,334.527 441.919,339.527 452,350.5C 452.494,348.866 452.66,347.199 452.5,345.5C 457.314,350.123 460.314,355.79 461.5,362.5C 464.833,362.5 468.167,362.5 471.5,362.5C 469.996,350.489 465.83,339.489 459,329.5C 456.63,326.961 454.13,324.628 451.5,322.5C 450.833,321.5 450.167,320.5 449.5,319.5C 450.716,293.14 443.549,269.14 428,247.5C 423.916,242.572 418.749,239.572 412.5,238.5 Z"/></g>
<g><path style="opacity:1" fill="#d6d6d8" d="M 528.5,238.5 C 531.5,238.5 534.5,238.5 537.5,238.5C 538.883,272.165 540.216,305.831 541.5,339.5C 537.167,339.5 532.833,339.5 528.5,339.5C 517.833,339.5 507.167,339.5 496.5,339.5C 506.987,338.506 517.654,338.172 528.5,338.5C 528.5,305.167 528.5,271.833 528.5,238.5 Z"/></g>
<g><path style="opacity:1" fill="#c5c5c8" d="M 517.5,127.5 C 520.386,128.596 522.386,130.596 523.5,133.5C 524.895,137.29 526.562,140.957 528.5,144.5C 531.313,152.279 534.313,159.946 537.5,167.5C 546.924,201.561 551.924,236.228 552.5,271.5C 551.338,290.329 551.171,309.329 552,328.5C 552.717,329.044 553.217,329.711 553.5,330.5C 552.834,334.486 552.501,338.653 552.5,343C 553.868,392.16 554.868,441.326 555.5,490.5C 551.182,489.008 547.182,487.008 543.5,484.5C 545.48,472.545 546.146,460.212 545.5,447.5C 539.862,446.78 534.196,446.447 528.5,446.5C 528.5,446.167 528.5,445.833 528.5,445.5C 528.5,444.833 528.5,444.167 528.5,443.5C 533.854,443.569 539.187,443.902 544.5,444.5C 543.796,410.49 542.796,376.49 541.5,342.5C 537.167,342.5 532.833,342.5 528.5,342.5C 528.5,342.167 528.5,341.833 528.5,341.5C 528.5,340.833 528.5,340.167 528.5,339.5C 532.833,339.5 537.167,339.5 541.5,339.5C 540.216,305.831 538.883,272.165 537.5,238.5C 534.5,238.5 531.5,238.5 528.5,238.5C 528.5,238.167 528.5,237.833 528.5,237.5C 528.5,236.833 528.5,236.167 528.5,235.5C 531.5,235.5 534.5,235.5 537.5,235.5C 536.452,205.548 531.619,176.215 523,147.5C 521.324,140.464 518.491,133.964 514.5,128C 515.448,127.517 516.448,127.351 517.5,127.5 Z"/></g>
<g><path style="opacity:1" fill="#d6d6d8" d="M 290.5,239.5 C 290.5,273.167 290.5,306.833 290.5,340.5C 287.482,340.704 284.482,341.037 281.5,341.5C 281.826,332.651 281.493,323.984 280.5,315.5C 280.987,314.527 281.487,313.527 282,312.5C 282.829,294.995 282.662,277.662 281.5,260.5C 282.944,253.957 283.61,247.291 283.5,240.5C 285.861,240.326 288.194,239.993 290.5,239.5 Z"/></g>
<g><path style="opacity:1" fill="#d8d8d9" d="M 486.5,239.5 C 485.84,273.183 486.507,306.517 488.5,339.5C 486.052,340.473 483.385,340.806 480.5,340.5C 479.155,312.516 478.155,284.516 477.5,256.5C 478.488,251.36 478.821,246.026 478.5,240.5C 481.127,239.908 483.794,239.575 486.5,239.5 Z"/></g>
<g><path style="opacity:1" fill="#f7f7f7" d="M 642.5,240.5 C 649.263,240.547 651.263,243.714 648.5,250C 643.477,252.911 640.144,251.744 638.5,246.5C 638.866,243.744 640.2,241.744 642.5,240.5 Z"/></g>
<g><path style="opacity:1" fill="#535453" d="M 413.5,264.5 C 403.869,263.894 394.536,265.227 385.5,268.5C 390.136,260.349 396.136,253.182 403.5,247C 407.886,245.943 411.053,247.443 413,251.5C 413.499,255.821 413.666,260.154 413.5,264.5 Z"/></g>
<g><path style="opacity:1" fill="#111112" d="M 173.5,246.5 C 176.794,246.259 179.794,247.092 182.5,249C 185.833,252.333 189.167,255.667 192.5,259C 191.315,260.353 189.981,261.52 188.5,262.5C 185.683,260.183 183.016,257.683 180.5,255C 174.792,251.035 172.292,252.535 173,259.5C 176.217,262.38 179.05,265.547 181.5,269C 181,270.833 179.833,272 178,272.5C 172.363,268.03 167.196,263.03 162.5,257.5C 163.689,256.571 165.022,256.238 166.5,256.5C 166.52,251.489 168.853,248.156 173.5,246.5 Z"/></g>
<g><path style="opacity:1" fill="#0d0d0e" d="M 659.5,251.5 C 668.547,251.88 673.214,256.547 673.5,265.5C 668.148,265.946 662.815,266.613 657.5,267.5C 659.173,269.086 661.173,269.753 663.5,269.5C 663.5,271.5 663.5,273.5 663.5,275.5C 655.72,275.561 651.054,271.727 649.5,264C 650.838,258.17 654.171,254.003 659.5,251.5 Z"/></g>
<g><path style="opacity:1" fill="#e5e9ec" d="M 249.5,253.5 C 250.5,253.5 251.5,253.5 252.5,253.5C 252.5,254.5 252.5,255.5 252.5,256.5C 251.5,256.5 250.5,256.5 249.5,256.5C 249.5,255.5 249.5,254.5 249.5,253.5 Z"/></g>
<g><path style="opacity:1" fill="#151515" d="M 146.5,256.5 C 149.93,255.755 151.597,257.089 151.5,260.5C 151.8,264.177 150.134,265.844 146.5,265.5C 146.5,262.5 146.5,259.5 146.5,256.5 Z"/></g>
<g><path style="opacity:1" fill="#c15234" d="M 480.5,421.5 C 479.5,419.5 478.5,417.5 477.5,415.5C 475.58,380.846 473.746,346.179 472,311.5C 469.525,296.232 464.025,282.232 455.5,269.5C 455.335,265.818 455.501,262.152 456,258.5C 465.856,271.217 472.189,285.55 475,301.5C 477.306,341.477 479.139,381.477 480.5,421.5 Z"/></g>
<g><path style="opacity:1" fill="#e1e1e2" d="M 660.5,257.5 C 662.842,257.504 664.842,258.337 666.5,260C 663.232,261.213 659.899,261.546 656.5,261C 657.731,259.595 659.064,258.429 660.5,257.5 Z"/></g>
<g><path style="opacity:1" fill="#09090a" d="M 155.5,263.5 C 167.998,263.487 172.831,269.487 170,281.5C 166.212,286.153 161.378,287.653 155.5,286C 149.092,282.677 146.925,277.511 149,270.5C 150.694,267.642 152.861,265.309 155.5,263.5 Z"/></g>
<g><path style="opacity:1" fill="#fdfdfd" d="M 413.5,264.5 C 414.496,279.658 414.83,294.991 414.5,310.5C 389.186,312.469 373.186,325.802 366.5,350.5C 365.837,348.359 365.503,346.025 365.5,343.5C 366.16,332.175 366.66,320.841 367,309.5C 370.008,294.27 376.174,280.604 385.5,268.5C 394.536,265.227 403.869,263.894 413.5,264.5 Z"/></g>
<g><path style="opacity:1" fill="#0d0d0e" d="M 675.5,266.5 C 677.655,266.372 679.655,266.872 681.5,268C 684.5,271 687.5,274 690.5,277C 689.315,278.353 687.981,279.52 686.5,280.5C 683.5,277.833 680.5,275.167 677.5,272.5C 676.417,273.365 676.251,274.365 677,275.5C 680.124,277.601 681.958,280.434 682.5,284C 680.766,291.202 676.766,292.869 670.5,289C 667.5,286 664.5,283 661.5,280C 663,278.5 664.5,277 666,275.5C 669.333,278.833 672.667,282.167 676,285.5C 675.735,282.18 674.069,279.513 671,277.5C 669.393,272.438 670.893,268.772 675.5,266.5 Z"/></g>
<g><path style="opacity:1" fill="#f5f5f5" d="M 157.5,269.5 C 164.839,270.014 166.839,273.514 163.5,280C 156,281.833 153.167,279 155,271.5C 155.995,270.934 156.828,270.267 157.5,269.5 Z"/></g>
<g><path style="opacity:1" fill="#141515" d="M 133.5,271.5 C 139.488,271.664 140.821,274.164 137.5,279C 131.403,279.147 130.07,276.647 133.5,271.5 Z"/></g>
<g><path style="opacity:1" fill="#151516" d="M 141.5,277.5 C 146.798,282.297 151.965,287.297 157,292.5C 156.833,295.333 155.333,296.833 152.5,297C 147.5,292 142.5,287 137.5,282C 139.041,280.629 140.375,279.129 141.5,277.5 Z"/></g>
<g><path style="opacity:1" fill="#f3f5f7" d="M 187.5,280.5 C 194.162,279.997 196.662,282.997 195,289.5C 191.667,293.5 188.333,293.5 185,289.5C 183.927,285.9 184.76,282.9 187.5,280.5 Z"/></g>
<g><path style="opacity:1" fill="#0f1010" d="M 676.5,305.5 C 674.167,305.167 672.833,303.833 672.5,301.5C 679.146,294.188 686.146,287.188 693.5,280.5C 694.429,281.689 694.762,283.022 694.5,284.5C 704.826,286.821 707.993,292.821 704,302.5C 697.953,308.728 691.62,309.062 685,303.5C 684.333,302.167 683.667,300.833 683,299.5C 680.963,301.706 678.797,303.706 676.5,305.5 Z"/></g>
<g><path style="opacity:1" fill="#d3523e" d="M 364.5,281.5 C 364.365,287.181 364.032,292.848 363.5,298.5C 362.734,302.832 361.9,307.166 361,311.5C 359.277,346.18 357.444,380.847 355.5,415.5C 354.5,417.5 353.5,419.5 352.5,421.5C 354.167,381.829 356,342.162 358,302.5C 359.237,295.089 361.403,288.089 364.5,281.5 Z"/></g>
<g><path style="opacity:1" fill="#0c0c0d" d="M 132.5,286.5 C 134.833,286.5 137.167,286.5 139.5,286.5C 139.5,288.5 139.5,290.5 139.5,292.5C 132.229,291.765 129.895,294.765 132.5,301.5C 134.867,303.395 137.534,303.895 140.5,303C 142.229,301.211 142.896,299.044 142.5,296.5C 144.5,296.5 146.5,296.5 148.5,296.5C 147.605,308.121 141.605,311.955 130.5,308C 123.318,299.978 123.984,292.811 132.5,286.5 Z"/></g>
<g><path style="opacity:1" fill="#f1f3f5" d="M 625.5,289.5 C 632.158,288.344 634.158,290.844 631.5,297C 628.49,299.222 625.99,298.722 624,295.5C 623.252,293.16 623.752,291.16 625.5,289.5 Z"/></g>
<g><path style="opacity:1" fill="#f6f6f6" d="M 691.5,290.5 C 699.558,290.145 701.558,293.479 697.5,300.5C 692.368,302.894 689.368,301.394 688.5,296C 688.863,293.808 689.863,291.974 691.5,290.5 Z"/></g>
<g><path style="opacity:1" fill="#0c0c0d" d="M 118.5,300.5 C 124.146,305.479 129.479,310.812 134.5,316.5C 132.955,317.452 131.288,317.785 129.5,317.5C 128.859,324.141 125.192,327.808 118.5,328.5C 108.882,326.052 105.382,320.052 108,310.5C 110.285,307.108 113.452,305.441 117.5,305.5C 117.366,303.708 117.699,302.042 118.5,300.5 Z"/></g>
<g><path style="opacity:1" fill="#0d0d0e" d="M 709.5,301.5 C 716.607,301.389 721.274,304.723 723.5,311.5C 724.908,312.243 726.241,313.077 727.5,314C 722.319,319.348 716.985,324.515 711.5,329.5C 710.833,328.167 710.167,326.833 709.5,325.5C 699.383,321.316 697.216,314.65 703,305.5C 705.095,303.875 707.261,302.542 709.5,301.5 Z"/></g>
<g><path style="opacity:1" fill="#efeff0" d="M 710.5,307.5 C 715.757,307.688 717.924,310.355 717,315.5C 712.344,321.043 708.511,320.543 705.5,314C 706.283,311.062 707.95,308.896 710.5,307.5 Z"/></g>
<g><path style="opacity:1" fill="#2c3b5d" d="M 414.5,310.5 C 416.456,316.412 417.123,322.745 416.5,329.5C 414.265,329.205 412.265,329.539 410.5,330.5C 392.337,334.005 380.004,344.338 373.5,361.5C 370.5,361.5 367.5,361.5 364.5,361.5C 364.417,357.665 365.083,353.998 366.5,350.5C 373.186,325.802 389.186,312.469 414.5,310.5 Z"/></g>
<g><path style="opacity:1" fill="#2d3c5d" d="M 449.5,319.5 C 450.167,320.5 450.833,321.5 451.5,322.5C 452.35,329.799 452.683,337.132 452.5,344.5C 442.905,335.705 431.572,330.705 418.5,329.5C 418.5,323.167 418.5,316.833 418.5,310.5C 429.758,310.477 440.091,313.477 449.5,319.5 Z"/></g>
<g><path style="opacity:1" fill="#efeff0" d="M 116.5,310.5 C 123.037,311.178 125.204,314.511 123,320.5C 117.837,323.343 114.337,321.843 112.5,316C 113.007,313.455 114.341,311.621 116.5,310.5 Z"/></g>
<g><path style="opacity:1" fill="#131414" d="M 92.5,312.5 C 98.0204,313.044 99.3538,315.544 96.5,320C 90.4034,320.147 89.0701,317.647 92.5,312.5 Z"/></g>
<g><path style="opacity:1" fill="#f4f5f7" d="M 617.5,313.5 C 625.379,313.216 628.212,316.883 626,324.5C 621.648,328.665 617.648,328.331 614,323.5C 613.333,321.5 613.333,319.5 614,317.5C 615.376,316.295 616.542,314.962 617.5,313.5 Z"/></g>
<g><path style="opacity:1" fill="#1d2330" d="M 280.5,315.5 C 281.493,323.984 281.826,332.651 281.5,341.5C 280.587,347.441 280.254,353.441 280.5,359.5C 280.5,370.167 280.5,380.833 280.5,391.5C 279.833,393.833 279.167,396.167 278.5,398.5C 270.32,396.512 267.487,399.512 270,407.5C 272.939,409.813 276.105,410.146 279.5,408.5C 279.5,419.167 279.5,429.833 279.5,440.5C 278.511,445.975 278.178,451.642 278.5,457.5C 278.5,468.5 278.5,479.5 278.5,490.5C 255.204,503.033 242.371,522.7 240,549.5C 239.469,555.171 238.969,560.838 238.5,566.5C 251.687,568.86 264.687,571.527 277.5,574.5C 276.622,587.478 276.289,600.478 276.5,613.5C 272.154,613.666 267.821,613.499 263.5,613C 245.624,600.136 225.957,596.47 204.5,602C 189.165,607.007 176.998,616.174 168,629.5C 166.218,625.762 165.385,621.762 165.5,617.5C 186.902,510.282 225.235,409.615 280.5,315.5 Z"/></g>
<g><path style="opacity:1" fill="#050506" d="M 99.5,319.5 C 105.576,324.069 111.242,329.236 116.5,335C 115.234,336.983 113.568,337.983 111.5,338C 106.5,333 101.5,328 96.5,323C 97.7101,321.961 98.7101,320.794 99.5,319.5 Z"/></g>
<g><path style="opacity:1" fill="#0d0d0e" d="M 726.5,320.5 C 736.678,319.68 741.678,324.346 741.5,334.5C 739.5,334.5 737.5,334.5 735.5,334.5C 736.368,328.011 733.701,325.511 727.5,327C 724.71,329.21 723.877,332.044 725,335.5C 726.789,337.229 728.956,337.896 731.5,337.5C 731.5,339.5 731.5,341.5 731.5,343.5C 721.217,343.043 717.051,337.709 719,327.5C 720.742,324.254 723.242,321.921 726.5,320.5 Z"/></g>
<g><path style="opacity:1" fill="#f3f5f7" d="M 211.5,321.5 C 220.24,320.717 222.907,324.217 219.5,332C 213.648,334.905 209.981,333.239 208.5,327C 208.863,324.808 209.863,322.974 211.5,321.5 Z"/></g>
<g><path style="opacity:1" fill="#828998" d="M 451.5,322.5 C 454.13,324.628 456.63,326.961 459,329.5C 465.83,339.489 469.996,350.489 471.5,362.5C 468.167,362.5 464.833,362.5 461.5,362.5C 460.314,355.79 457.314,350.123 452.5,345.5C 452.5,345.167 452.5,344.833 452.5,344.5C 452.683,337.132 452.35,329.799 451.5,322.5 Z"/></g>
<g><path style="opacity:1" fill="#141415" d="M 750.5,326.5 C 756.488,326.664 757.821,329.164 754.5,334C 748.403,334.147 747.07,331.647 750.5,326.5 Z"/></g>
<g><path style="opacity:1" fill="#0b0b0c" d="M 91.5,327.5 C 93.5,327.5 95.5,327.5 97.5,327.5C 97.5,329.5 97.5,331.5 97.5,333.5C 90.4822,333.77 88.6489,337.103 92,343.5C 98.2861,346.263 101.453,344.263 101.5,337.5C 103.5,337.5 105.5,337.5 107.5,337.5C 106.605,349.121 100.605,352.955 89.5,349C 84.355,344.402 83.1883,338.902 86,332.5C 87.7297,330.598 89.563,328.931 91.5,327.5 Z"/></g>
<g><path style="opacity:1" fill="#fefefe" d="M 410.5,330.5 C 411.833,330.5 413.167,330.5 414.5,330.5C 414.5,332.167 414.5,333.833 414.5,335.5C 409.85,336.181 405.184,337.347 400.5,339C 388.786,343.709 380.953,351.875 377,363.5C 386.139,350.35 398.639,343.017 414.5,341.5C 414.669,388.835 415.002,436.168 415.5,483.5C 398.289,481.691 385.122,488.024 376,502.5C 366.304,526.858 361.47,552.191 361.5,578.5C 356.602,578.637 354.602,576.137 355.5,571C 356.145,561.175 356.645,551.341 357,541.5C 357.003,537.564 357.836,533.897 359.5,530.5C 358.256,527.362 357.589,524.028 357.5,520.5C 360.354,467.855 362.687,415.188 364.5,362.5C 367.713,362.81 370.713,362.477 373.5,361.5C 380.004,344.338 392.337,334.005 410.5,330.5 Z"/></g>
<g><path style="opacity:1" fill="#1d2330" d="M 553.5,330.5 C 599.349,418.192 636.515,509.525 665,604.5C 666.315,609.425 667.148,614.425 667.5,619.5C 667.705,623.46 666.872,627.127 665,630.5C 645.206,603.456 619.039,594.289 586.5,603C 579.887,605.305 573.887,608.638 568.5,613C 564.514,613.499 560.514,613.666 556.5,613.5C 556.5,600.5 556.5,587.5 556.5,574.5C 568.95,571.38 581.616,568.714 594.5,566.5C 594.084,557.755 593.084,549.088 591.5,540.5C 595.148,539.5 596.314,537.166 595,533.5C 593.556,531.845 591.722,531.178 589.5,531.5C 586.075,522.654 581.575,514.321 576,506.5C 569.731,500.301 562.898,494.968 555.5,490.5C 554.868,441.326 553.868,392.16 552.5,343C 552.501,338.653 552.834,334.486 553.5,330.5 Z"/></g>
<g><path style="opacity:1" fill="#161617" d="M 745.5,332.5 C 747.296,333.793 748.963,335.293 750.5,337C 745.5,342 740.5,347 735.5,352C 732.667,351.833 731.167,350.333 731,347.5C 736.037,342.631 740.87,337.631 745.5,332.5 Z"/></g>
<g><path style="opacity:1" fill="#8e9093" d="M 304.5,339.5 C 314.167,339.5 323.833,339.5 333.5,339.5C 333.5,340.167 333.5,340.833 333.5,341.5C 319.071,340.988 304.738,341.654 290.5,343.5C 287.482,343.704 284.482,344.037 281.5,344.5C 281.821,349.695 281.487,354.695 280.5,359.5C 280.254,353.441 280.587,347.441 281.5,341.5C 284.482,341.037 287.482,340.704 290.5,340.5C 295.152,340.002 299.819,339.669 304.5,339.5 Z"/></g>
<g><path style="opacity:1" fill="#8f9193" d="M 488.5,339.5 C 491.167,339.5 493.833,339.5 496.5,339.5C 507.167,339.5 517.833,339.5 528.5,339.5C 528.5,340.167 528.5,340.833 528.5,341.5C 516.829,341.333 505.162,341.5 493.5,342C 491.08,342.29 488.746,342.79 486.5,343.5C 484.5,343.5 482.5,343.5 480.5,343.5C 480.5,342.5 480.5,341.5 480.5,340.5C 483.385,340.806 486.052,340.473 488.5,339.5 Z"/></g>
<g><path style="opacity:1" fill="#fefefe" d="M 333.5,341.5 C 333.5,341.833 333.5,342.167 333.5,342.5C 333.5,375.833 333.5,409.167 333.5,442.5C 322.654,442.172 311.987,442.506 301.5,443.5C 297.785,443.423 294.119,443.756 290.5,444.5C 290.5,410.833 290.5,377.167 290.5,343.5C 304.738,341.654 319.071,340.988 333.5,341.5 Z"/></g>
<g><path style="opacity:1" fill="#fefefe" d="M 528.5,341.5 C 528.5,341.833 528.5,342.167 528.5,342.5C 528.5,375.833 528.5,409.167 528.5,442.5C 517.654,442.172 506.987,442.506 496.5,443.5C 490.99,442.574 487.656,439.241 486.5,433.5C 486.5,403.5 486.5,373.5 486.5,343.5C 488.746,342.79 491.08,342.29 493.5,342C 505.162,341.5 516.829,341.333 528.5,341.5 Z"/></g>
<g><path style="opacity:1" fill="#d6d6d8" d="M 333.5,342.5 C 337.833,342.5 342.167,342.5 346.5,342.5C 347.421,371.494 348.088,400.494 348.5,429.5C 346.955,434.257 344.621,438.591 341.5,442.5C 328.183,443.499 314.85,443.833 301.5,443.5C 311.987,442.506 322.654,442.172 333.5,442.5C 333.5,409.167 333.5,375.833 333.5,342.5 Z"/></g>
<g><path style="opacity:1" fill="#d6d6d8" d="M 528.5,342.5 C 532.833,342.5 537.167,342.5 541.5,342.5C 542.796,376.49 543.796,410.49 544.5,444.5C 539.187,443.902 533.854,443.569 528.5,443.5C 517.833,443.5 507.167,443.5 496.5,443.5C 506.987,442.506 517.654,442.172 528.5,442.5C 528.5,409.167 528.5,375.833 528.5,342.5 Z"/></g>
<g><path style="opacity:1" fill="#edf0f2" d="M 140.5,343.5 C 142.604,343.201 144.604,343.534 146.5,344.5C 147.877,348.959 146.211,350.793 141.5,350C 139.316,348.102 138.983,345.936 140.5,343.5 Z"/></g>
<g><path style="opacity:1" fill="#d9d9db" d="M 290.5,343.5 C 290.5,377.167 290.5,410.833 290.5,444.5C 287.041,444.531 283.708,445.198 280.5,446.5C 279.534,444.604 279.201,442.604 279.5,440.5C 279.5,429.833 279.5,419.167 279.5,408.5C 276.105,410.146 272.939,409.813 270,407.5C 267.487,399.512 270.32,396.512 278.5,398.5C 278.56,399.043 278.893,399.376 279.5,399.5C 280.48,396.914 280.813,394.247 280.5,391.5C 280.5,380.833 280.5,370.167 280.5,359.5C 281.487,354.695 281.821,349.695 281.5,344.5C 284.482,344.037 287.482,343.704 290.5,343.5 Z"/></g>
<g><path style="opacity:1" fill="#d9d9da" d="M 480.5,343.5 C 482.5,343.5 484.5,343.5 486.5,343.5C 486.5,373.5 486.5,403.5 486.5,433.5C 485.263,432.035 484.263,430.368 483.5,428.5C 482.307,400.174 481.307,371.841 480.5,343.5 Z"/></g>
<g><path style="opacity:1" fill="#0b0b0b" d="M 750.5,342.5 C 758.735,342.405 763.068,346.405 763.5,354.5C 765.199,354.34 766.866,354.506 768.5,355C 763.319,360.348 757.985,365.515 752.5,370.5C 751.833,369.167 751.167,367.833 750.5,366.5C 737.271,358.603 737.271,350.603 750.5,342.5 Z"/></g>
<g><path style="opacity:1" fill="#0a0a0a" d="M 75.5,344.5 C 86.1553,345.319 90.6553,350.985 89,361.5C 84.6717,368.696 78.8384,370.196 71.5,366C 63.8916,357.076 65.2249,349.91 75.5,344.5 Z"/></g>
<g><path style="opacity:1" fill="#f0f0f1" d="M 751.5,348.5 C 757.771,349.374 759.604,352.707 757,358.5C 749.563,361.945 746.563,359.611 748,351.5C 749.145,350.364 750.312,349.364 751.5,348.5 Z"/></g>
<g><path style="opacity:1" fill="#f0f0f0" d="M 76.5,350.5 C 83.0095,351.207 85.1761,354.54 83,360.5C 78.9971,363.501 75.6638,362.835 73,358.5C 72.2793,354.946 73.4459,352.28 76.5,350.5 Z"/></g>
<g><path style="opacity:1" fill="#090a0b" d="M 776.5,352.5 C 779.524,352.364 781.024,353.698 781,356.5C 774.167,363.333 767.333,370.167 760.5,377C 758.432,376.983 756.766,375.983 755.5,374C 762.703,366.965 769.703,359.798 776.5,352.5 Z"/></g>
<g><path style="opacity:1" fill="#f9f9fa" d="M 683.5,355.5 C 691.818,355.987 693.485,359.487 688.5,366C 680.088,365.812 678.421,362.312 683.5,355.5 Z"/></g>
<g><path style="opacity:1" fill="#0f1010" d="M 59.5,359.5 C 61.595,359.76 62.9283,360.926 63.5,363C 61.7201,365.784 59.5535,368.284 57,370.5C 56.2506,371.635 56.4173,372.635 57.5,373.5C 59.6499,371.851 61.6499,370.018 63.5,368C 69.4217,366.124 73.0884,368.124 74.5,374C 71.8622,379.654 68.0288,384.487 63,388.5C 61.5,387 60,385.5 58.5,384C 61.8333,380.667 65.1667,377.333 68.5,374C 65.1801,374.265 62.5135,375.931 60.5,379C 51.9338,380.108 48.7671,376.608 51,368.5C 54.0379,365.631 56.8712,362.631 59.5,359.5 Z"/></g>
<g><path style="opacity:1" fill="#e8ebee" d="M 720.5,371.5 C 726.488,371.664 727.821,374.164 724.5,379C 718.403,379.147 717.07,376.647 720.5,371.5 Z"/></g>
<g><path style="opacity:1" fill="#0b0b0c" d="M 35.5,374.5 C 39.4629,374.089 43.1295,374.922 46.5,377C 51.1667,381.667 55.8333,386.333 60.5,391C 59,392.5 57.5,394 56,395.5C 54.5784,393.362 52.745,392.195 50.5,392C 48.1667,394.333 45.8333,396.667 43.5,399C 48.7453,401.948 48.7453,404.781 43.5,407.5C 37.8157,402.649 32.649,397.316 28,391.5C 25.7851,383.6 28.2851,377.934 35.5,374.5 Z"/></g>
<g><path style="opacity:1" fill="#f5f6f7" d="M 116.5,376.5 C 125.61,376.752 128.277,380.918 124.5,389C 116.901,392.05 113.067,389.55 113,381.5C 113.997,379.677 115.164,378.01 116.5,376.5 Z"/></g>
<g><path style="opacity:1" fill="#f5f7f8" d="M 631.5,380.5 C 637.158,379.679 638.825,381.846 636.5,387C 630.244,387.934 628.577,385.767 631.5,380.5 Z"/></g>
<g><path style="opacity:1" fill="#f1f1f1" d="M 37.5,380.5 C 41.7114,381.193 45.0447,383.36 47.5,387C 44.9841,389.683 42.3174,392.183 39.5,394.5C 32.477,390.401 31.8104,385.734 37.5,380.5 Z"/></g>
<g><path style="opacity:1" fill="#bfc8d1" d="M 168.5,369.5 C 170.28,373.727 171.114,378.394 171,383.5C 177.153,378.156 177.653,378.489 172.5,384.5C 191.132,385.992 191.132,387.159 172.5,388C 176.728,392.299 176.394,393.133 171.5,390.5C 169.414,406.262 168.414,406.262 168.5,390.5C 165.737,390.744 163.571,392.077 162,394.5C 161.333,393.833 161.333,393.167 162,392.5C 163.353,391.315 164.52,389.981 165.5,388.5C 144.364,387.632 144.364,386.299 165.5,384.5C 159.955,377.589 160.622,376.922 167.5,382.5C 168.492,378.217 168.826,373.884 168.5,369.5 Z"/></g>
<g><path style="opacity:1" fill="#72767d" d="M 280.5,391.5 C 280.813,394.247 280.48,396.914 279.5,399.5C 278.893,399.376 278.56,399.043 278.5,398.5C 279.167,396.167 279.833,393.833 280.5,391.5 Z"/></g>
<g><path style="opacity:1" fill="#f5f6f8" d="M 751.5,404.5 C 758.494,404.415 760.161,407.248 756.5,413C 749.421,413.527 747.754,410.694 751.5,404.5 Z"/></g>
<g><path style="opacity:1" fill="#d5817d" d="M 350.5,414.5 C 350.185,418.371 350.518,422.038 351.5,425.5C 351.167,426.5 350.5,427.167 349.5,427.5C 349.182,422.968 349.515,418.634 350.5,414.5 Z"/></g>
<g><path style="opacity:1" fill="#bdbdc1" d="M 355.5,425.5 C 352.787,480.121 351.12,534.787 350.5,589.5C 349.041,589.567 347.708,589.234 346.5,588.5C 345.041,588.567 343.708,588.234 342.5,587.5C 342.702,585.05 342.369,582.717 341.5,580.5C 342.8,578.777 343.467,576.61 343.5,574C 343.333,571.833 343.167,569.667 343,567.5C 340.099,567.066 337.599,565.899 335.5,564C 336.292,559.166 337.125,554.333 338,549.5C 339.401,547.808 341.234,547.141 343.5,547.5C 344.102,517.322 345.102,487.155 346.5,457C 346.499,452.985 346.165,449.151 345.5,445.5C 349.393,439.047 352.727,432.38 355.5,425.5 Z"/></g>
<g><path style="opacity:1" fill="#bfbfc2" d="M 477.5,425.5 C 480.273,432.38 483.607,439.047 487.5,445.5C 486.835,449.151 486.501,452.985 486.5,457C 487.338,480.161 488.004,503.328 488.5,526.5C 488.503,533.867 489.17,540.867 490.5,547.5C 489.193,553.932 489.193,560.266 490.5,566.5C 489.889,568.913 489.555,571.413 489.5,574C 489.533,576.61 490.2,578.777 491.5,580.5C 490.631,582.717 490.298,585.05 490.5,587.5C 489.292,588.234 487.959,588.567 486.5,588.5C 485.041,588.433 483.708,588.766 482.5,589.5C 482.094,534.874 480.427,480.207 477.5,425.5 Z"/></g>
<g><path style="opacity:1" fill="#edeff2" d="M 697.5,430.5 C 704.896,430.615 706.23,433.448 701.5,439C 696.504,439.664 694.67,437.498 696,432.5C 696.717,431.956 697.217,431.289 697.5,430.5 Z"/></g>
<g><path style="opacity:1" fill="#f6f8f9" d="M 136.5,436.5 C 144.161,435.663 147.661,438.996 147,446.5C 143.455,452.209 139.121,452.875 134,448.5C 131.523,443.669 132.356,439.669 136.5,436.5 Z"/></g>
<g><path style="opacity:1" fill="#969698" d="M 477.5,415.5 C 478.5,417.5 479.5,419.5 480.5,421.5C 480.935,424.157 481.935,426.491 483.5,428.5C 484.263,430.368 485.263,432.035 486.5,433.5C 487.656,439.241 490.99,442.574 496.5,443.5C 507.167,443.5 517.833,443.5 528.5,443.5C 528.5,444.167 528.5,444.833 528.5,445.5C 517.147,445.168 505.814,445.501 494.5,446.5C 495.63,447.622 496.297,448.956 496.5,450.5C 496.5,452.833 496.5,455.167 496.5,457.5C 492.762,454.09 489.762,450.09 487.5,445.5C 483.607,439.047 480.273,432.38 477.5,425.5C 477.5,422.167 477.5,418.833 477.5,415.5 Z"/></g>
<g><path style="opacity:1" fill="#f3f5f6" d="M 643.5,435.5 C 651.543,436.02 653.876,439.854 650.5,447C 643.074,449.902 639.574,447.402 640,439.5C 641.376,438.295 642.542,436.962 643.5,435.5 Z"/></g>
<g><path style="opacity:1" fill="#959698" d="M 355.5,415.5 C 355.5,418.833 355.5,422.167 355.5,425.5C 352.727,432.38 349.393,439.047 345.5,445.5C 343.238,450.09 340.238,454.09 336.5,457.5C 336.5,455.167 336.5,452.833 336.5,450.5C 336.511,448.983 337.177,447.816 338.5,447C 322.455,444.892 306.455,445.059 290.5,447.5C 286.821,447.724 283.154,448.058 279.5,448.5C 279.81,451.713 279.477,454.713 278.5,457.5C 278.178,451.642 278.511,445.975 279.5,440.5C 279.201,442.604 279.534,444.604 280.5,446.5C 283.708,445.198 287.041,444.531 290.5,444.5C 294.119,443.756 297.785,443.423 301.5,443.5C 314.85,443.833 328.183,443.499 341.5,442.5C 344.621,438.591 346.955,434.257 348.5,429.5C 349.338,429.158 349.672,428.492 349.5,427.5C 350.5,427.167 351.167,426.5 351.5,425.5C 351.833,424.167 352.167,422.833 352.5,421.5C 353.5,419.5 354.5,417.5 355.5,415.5 Z"/></g>
<g><path style="opacity:1" fill="#fbfbfb" d="M 336.5,450.5 C 327.411,460.258 317.411,468.925 306.5,476.5C 304.181,476.992 302.181,477.992 300.5,479.5C 297.622,481.105 294.622,482.439 291.5,483.5C 290.505,471.678 290.172,459.678 290.5,447.5C 306.455,445.059 322.455,444.892 338.5,447C 337.177,447.816 336.511,448.983 336.5,450.5 Z"/></g>
<g><path style="opacity:1" fill="#c8c8cb" d="M 345.5,445.5 C 346.165,449.151 346.499,452.985 346.5,457C 345.102,487.155 344.102,517.322 343.5,547.5C 341.234,547.141 339.401,547.808 338,549.5C 337.125,554.333 336.292,559.166 335.5,564C 337.599,565.899 340.099,567.066 343,567.5C 343.167,569.667 343.333,571.833 343.5,574C 343.467,576.61 342.8,578.777 341.5,580.5C 335.455,579.758 329.455,578.758 323.5,577.5C 322.508,577.672 321.842,577.338 321.5,576.5C 322.693,576.03 323.36,575.03 323.5,573.5C 324.21,570.201 324.543,566.867 324.5,563.5C 327.43,564.299 330.43,564.632 333.5,564.5C 334.26,558.511 334.927,552.511 335.5,546.5C 332.391,546.736 329.391,546.403 326.5,545.5C 330.156,517.241 333.156,488.908 335.5,460.5C 335.557,459.391 335.89,458.391 336.5,457.5C 340.238,454.09 343.238,450.09 345.5,445.5 Z"/></g>
<g><path style="opacity:1" fill="#c8c8cb" d="M 487.5,445.5 C 489.762,450.09 492.762,454.09 496.5,457.5C 497.11,458.391 497.443,459.391 497.5,460.5C 499.581,488.896 502.248,517.23 505.5,545.5C 503.107,546.21 500.607,546.877 498,547.5C 498.165,553.165 498.665,558.832 499.5,564.5C 502.482,564.037 505.482,563.704 508.5,563.5C 508.438,568.076 509.105,572.409 510.5,576.5C 510.5,577.167 510.167,577.5 509.5,577.5C 503.539,578.716 497.539,579.716 491.5,580.5C 490.2,578.777 489.533,576.61 489.5,574C 489.555,571.413 489.889,568.913 490.5,566.5C 492.861,566.326 495.194,565.993 497.5,565.5C 496.831,560.153 495.998,554.82 495,549.5C 493.951,547.893 492.451,547.227 490.5,547.5C 489.17,540.867 488.503,533.867 488.5,526.5C 488.004,503.328 487.338,480.161 486.5,457C 486.501,452.985 486.835,449.151 487.5,445.5 Z"/></g>
<g><path style="opacity:1" fill="#fcfcfc" d="M 528.5,445.5 C 528.5,445.833 528.5,446.167 528.5,446.5C 528.827,456.681 528.494,466.681 527.5,476.5C 515.946,469.279 505.613,460.612 496.5,450.5C 496.297,448.956 495.63,447.622 494.5,446.5C 505.814,445.501 517.147,445.168 528.5,445.5 Z"/></g>
<g><path style="opacity:1" fill="#d6d6d8" d="M 528.5,446.5 C 534.196,446.447 539.862,446.78 545.5,447.5C 546.146,460.212 545.48,472.545 543.5,484.5C 537.818,482.326 532.484,479.659 527.5,476.5C 528.494,466.681 528.827,456.681 528.5,446.5 Z"/></g>
<g><path style="opacity:1" fill="#d5d6d7" d="M 290.5,447.5 C 290.172,459.678 290.505,471.678 291.5,483.5C 287.361,486.072 283.027,488.405 278.5,490.5C 278.5,479.5 278.5,468.5 278.5,457.5C 279.477,454.713 279.81,451.713 279.5,448.5C 283.154,448.058 286.821,447.724 290.5,447.5 Z"/></g>
<g><path style="opacity:1" fill="#f4f5f5" d="M 574.5,456.5 C 582.241,456.738 584.241,460.238 580.5,467C 571.352,467.536 569.352,464.036 574.5,456.5 Z"/></g>
<g><path style="opacity:1" fill="#d9dadb" d="M 335.5,460.5 C 333.156,488.908 330.156,517.241 326.5,545.5C 325.883,545.611 325.383,545.944 325,546.5C 324.485,551.225 323.652,555.892 322.5,560.5C 322.64,562.03 323.307,563.03 324.5,563.5C 324.543,566.867 324.21,570.201 323.5,573.5C 323.36,575.03 322.693,576.03 321.5,576.5C 297.477,571.962 273.477,567.295 249.5,562.5C 249.444,542.704 254.944,524.704 266,508.5C 270.526,503.494 275.693,499.327 281.5,496C 294.488,489.507 307.155,482.507 319.5,475C 325.003,470.329 330.336,465.496 335.5,460.5 Z"/></g>
<g><path style="opacity:1" fill="#dadbdc" d="M 497.5,460.5 C 503.703,466.87 510.369,472.703 517.5,478C 528.833,484 540.167,490 551.5,496C 565.56,504.404 574.727,516.571 579,532.5C 581.645,542.331 583.145,552.331 583.5,562.5C 559.213,567.424 534.88,572.091 510.5,576.5C 509.105,572.409 508.438,568.076 508.5,563.5C 509.586,563.38 510.253,562.713 510.5,561.5C 509.806,557.14 508.972,552.806 508,548.5C 507.764,546.881 506.931,545.881 505.5,545.5C 502.248,517.23 499.581,488.896 497.5,460.5 Z"/></g>
<g><path style="opacity:1" fill="#888b92" d="M 256.5,462.5 C 255.833,464.167 255.167,465.833 254.5,467.5C 254.096,461.71 254.596,456.044 256,450.5C 256.499,454.486 256.666,458.486 256.5,462.5 Z"/></g>
<g><path style="opacity:1" fill="#8e9198" d="M 253.5,468.5 C 252.833,469.167 252.167,469.833 251.5,470.5C 250.611,468.264 249.278,466.264 247.5,464.5C 250.099,464.352 252.099,465.685 253.5,468.5 Z"/></g>
<g><path style="opacity:1" fill="#c8c9cc" d="M 256.5,462.5 C 256.201,464.604 256.534,466.604 257.5,468.5C 259.817,466.684 261.984,464.684 264,462.5C 263.107,465.436 261.274,467.936 258.5,470C 263.584,470.173 268.584,470.839 273.5,472C 268.798,472.172 264.132,472.672 259.5,473.5C 263.5,478.833 262.833,479.5 257.5,475.5C 256.751,492.682 255.418,492.682 253.5,475.5C 251.684,476.815 250.017,478.315 248.5,480C 247.833,480.667 247.167,480.667 246.5,480C 249.242,478.114 250.909,475.614 251.5,472.5C 248.5,472.5 245.5,472.5 242.5,472.5C 245.5,471.833 248.5,471.167 251.5,470.5C 252.167,469.833 252.833,469.167 253.5,468.5C 254.167,468.5 254.5,468.167 254.5,467.5C 255.167,465.833 255.833,464.167 256.5,462.5 Z"/></g>
<g><path style="opacity:1" fill="#898c93" d="M 251.5,470.5 C 248.5,471.167 245.5,471.833 242.5,472.5C 239.813,472.664 237.146,472.497 234.5,472C 240.088,470.711 245.755,470.211 251.5,470.5 Z"/></g>
<g><path style="opacity:1" fill="#58595b" d="M 423.5,566.5 C 422.508,573.982 422.175,581.648 422.5,589.5C 422.181,594.363 422.514,599.03 423.5,603.5C 420.19,605.801 416.857,608.134 413.5,610.5C 413.5,608.5 413.5,606.5 413.5,604.5C 413.5,599.5 413.5,594.5 413.5,589.5C 414.166,581.517 414.499,573.517 414.5,565.5C 414.333,544.497 414.5,523.497 415,502.5C 414.978,498.048 416.478,494.214 419.5,491C 416.692,490.08 414.525,490.913 413,493.5C 412.5,502.494 412.334,511.494 412.5,520.5C 412.818,525.032 412.485,529.366 411.5,533.5C 411.333,519.496 411.5,505.496 412,491.5C 416.509,486.006 420.509,486.339 424,492.5C 424.008,517.163 423.841,541.83 423.5,566.5 Z"/></g>
<g><path style="opacity:1" fill="#f3f3f3" d="M 414.5,565.5 C 413.833,550.5 413.167,535.5 412.5,520.5C 412.334,511.494 412.5,502.494 413,493.5C 414.525,490.913 416.692,490.08 419.5,491C 416.478,494.214 414.978,498.048 415,502.5C 414.5,523.497 414.333,544.497 414.5,565.5 Z"/></g>
<g><path style="opacity:1" fill="#525352" d="M 336.5,450.5 C 336.5,452.833 336.5,455.167 336.5,457.5C 335.89,458.391 335.557,459.391 335.5,460.5C 330.336,465.496 325.003,470.329 319.5,475C 307.155,482.507 294.488,489.507 281.5,496C 275.693,499.327 270.526,503.494 266,508.5C 254.944,524.704 249.444,542.704 249.5,562.5C 273.477,567.295 297.477,571.962 321.5,576.5C 321.842,577.338 322.508,577.672 323.5,577.5C 322.962,579.117 322.629,580.784 322.5,582.5C 321.5,582.5 320.5,582.5 319.5,582.5C 310.223,580.578 300.89,578.912 291.5,577.5C 286.941,576.094 282.275,575.094 277.5,574.5C 264.687,571.527 251.687,568.86 238.5,566.5C 238.969,560.838 239.469,555.171 240,549.5C 242.371,522.7 255.204,503.033 278.5,490.5C 283.027,488.405 287.361,486.072 291.5,483.5C 294.622,482.439 297.622,481.105 300.5,479.5C 302.379,479.393 302.712,479.893 301.5,481C 289.172,487.495 277.172,494.495 265.5,502C 248.724,518.98 240.558,539.48 241,563.5C 242.011,564.337 243.178,564.67 244.5,564.5C 244.057,544.334 249.557,526.001 261,509.5C 265.367,504.742 270.2,500.575 275.5,497C 286.99,491.425 297.99,485.091 308.5,478C 307.584,477.722 306.918,477.222 306.5,476.5C 317.411,468.925 327.411,460.258 336.5,450.5 Z"/></g>
<g><path style="opacity:1" fill="#555655" d="M 496.5,450.5 C 505.613,460.612 515.946,469.279 527.5,476.5C 532.484,479.659 537.818,482.326 543.5,484.5C 547.182,487.008 551.182,489.008 555.5,490.5C 562.898,494.968 569.731,500.301 576,506.5C 581.575,514.321 586.075,522.654 589.5,531.5C 589.676,534.727 590.343,537.727 591.5,540.5C 593.084,549.088 594.084,557.755 594.5,566.5C 581.616,568.714 568.95,571.38 556.5,574.5C 550.905,574.754 545.572,575.754 540.5,577.5C 535.256,577.882 530.256,578.882 525.5,580.5C 520.124,581.285 514.791,582.285 509.5,583.5C 509.5,581.5 509.5,579.5 509.5,577.5C 510.167,577.5 510.5,577.167 510.5,576.5C 534.88,572.091 559.213,567.424 583.5,562.5C 583.145,552.331 581.645,542.331 579,532.5C 574.727,516.571 565.56,504.404 551.5,496C 540.167,490 528.833,484 517.5,478C 510.369,472.703 503.703,466.87 497.5,460.5C 497.443,459.391 497.11,458.391 496.5,457.5C 496.5,455.167 496.5,452.833 496.5,450.5 Z"/></g>
<g><path style="opacity:1" fill="#e8e2df" d="M 391.5,495.5 C 394.275,496.312 396.442,497.979 398,500.5C 399.632,505.03 400.632,509.696 401,514.5C 402.473,538.82 403.639,563.154 404.5,587.5C 391.167,587.5 377.833,587.5 364.5,587.5C 364.493,567.32 366.326,547.32 370,527.5C 372.327,518.84 375.993,510.84 381,503.5C 383.975,499.952 387.475,497.286 391.5,495.5 Z"/></g>
<g><path style="opacity:1" fill="#e8e2df" d="M 444.5,496.5 C 446.593,497.045 448.593,497.878 450.5,499C 456.648,505.455 461.148,512.955 464,521.5C 469.427,543.128 471.594,565.128 470.5,587.5C 457.167,587.5 443.833,587.5 430.5,587.5C 432.037,562.17 433.537,536.836 435,511.5C 435.326,506.854 436.66,502.521 439,498.5C 440.444,496.845 442.278,496.178 444.5,496.5 Z"/></g>
<g><path style="opacity:1" fill="#626261" d="M 306.5,476.5 C 306.918,477.222 307.584,477.722 308.5,478C 297.99,485.091 286.99,491.425 275.5,497C 270.2,500.575 265.367,504.742 261,509.5C 249.557,526.001 244.057,544.334 244.5,564.5C 243.178,564.67 242.011,564.337 241,563.5C 240.558,539.48 248.724,518.98 265.5,502C 277.172,494.495 289.172,487.495 301.5,481C 302.712,479.893 302.379,479.393 300.5,479.5C 302.181,477.992 304.181,476.992 306.5,476.5 Z"/></g>
<g><path style="opacity:1" fill="#fefdfd" d="M 452.5,510.5 C 458.588,519.923 462.421,530.256 464,541.5C 465.921,555.096 466.754,568.763 466.5,582.5C 464.5,582.5 462.5,582.5 460.5,582.5C 461.328,558.077 458.662,534.077 452.5,510.5 Z"/></g>
<g><path style="opacity:1" fill="#fdfdfd" d="M 382.5,509.5 C 383.097,509.735 383.43,510.235 383.5,511C 377.026,534.378 374.359,558.211 375.5,582.5C 373.167,582.5 370.833,582.5 368.5,582.5C 367.478,556.945 372.145,532.612 382.5,509.5 Z"/></g>
<g><path style="opacity:1" fill="#f9f9f9" d="M 222.5,521.5 C 230.161,520.663 233.661,523.996 233,531.5C 229.455,537.209 225.121,537.875 220,533.5C 217.511,528.757 218.345,524.757 222.5,521.5 Z"/></g>
<g><path style="opacity:1" fill="#e7e8e9" d="M 589.5,531.5 C 591.722,531.178 593.556,531.845 595,533.5C 596.314,537.166 595.148,539.5 591.5,540.5C 590.343,537.727 589.676,534.727 589.5,531.5 Z"/></g>
<g><path style="opacity:1" fill="#606264" d="M 257.5,535.5 C 260.5,535.5 263.5,535.5 266.5,535.5C 265.979,541.19 265.312,546.856 264.5,552.5C 261.518,552.037 258.518,551.704 255.5,551.5C 255.68,546.064 256.346,540.73 257.5,535.5 Z"/></g>
<g><path style="opacity:1" fill="#626365" d="M 571.5,534.5 C 573.167,534.5 574.833,534.5 576.5,534.5C 576.635,540.181 576.968,545.848 577.5,551.5C 574.552,551.223 571.719,551.556 569,552.5C 567.693,546.91 566.86,541.243 566.5,535.5C 568.415,535.784 570.081,535.451 571.5,534.5 Z"/></g>
<g><path style="opacity:1" fill="#5e6062" d="M 268.5,536.5 C 271.553,536.911 274.553,537.577 277.5,538.5C 277.913,543.767 277.913,549.101 277.5,554.5C 274.117,554.743 270.951,554.076 268,552.5C 267.471,547.146 267.638,541.813 268.5,536.5 Z"/></g>
<g><path style="opacity:1" fill="#5d5f61" d="M 560.5,536.5 C 561.833,536.5 563.167,536.5 564.5,536.5C 565.177,541.874 565.177,547.208 564.5,552.5C 561.553,553.423 558.553,554.089 555.5,554.5C 554.563,549.146 554.563,543.812 555.5,538.5C 557.336,537.972 559.003,537.306 560.5,536.5 Z"/></g>
<g><path style="opacity:1" fill="#606263" d="M 281.5,538.5 C 285.477,539.259 289.477,539.925 293.5,540.5C 293.197,545.892 292.531,551.225 291.5,556.5C 291.167,556.833 290.833,557.167 290.5,557.5C 286.928,556.319 283.262,555.652 279.5,555.5C 280.058,549.82 280.725,544.153 281.5,538.5 Z"/></g>
<g><path style="opacity:1" fill="#606264" d="M 546.5,538.5 C 548.167,538.5 549.833,538.5 551.5,538.5C 552.275,544.153 552.942,549.82 553.5,555.5C 549.253,556.249 545.087,556.249 541,555.5C 540.61,551.486 540.11,547.486 539.5,543.5C 539.833,542.5 540.167,541.5 540.5,540.5C 542.657,539.95 544.657,539.283 546.5,538.5 Z"/></g>
<g><path style="opacity:1" fill="#5e6062" d="M 295.5,540.5 C 299.384,541.793 303.384,542.459 307.5,542.5C 306.314,548.1 305.647,553.767 305.5,559.5C 301.821,559.637 298.321,558.971 295,557.5C 295.03,551.852 295.197,546.185 295.5,540.5 Z"/></g>
<g><path style="opacity:1" fill="#5d5f61" d="M 527.5,541.5 C 530.833,541.5 534.167,541.5 537.5,541.5C 538.03,546.887 538.03,552.22 537.5,557.5C 534.209,558.382 530.876,559.048 527.5,559.5C 527.571,554.405 526.905,549.405 525.5,544.5C 525.942,543.261 526.609,542.261 527.5,541.5 Z"/></g>
<g><path style="opacity:1" fill="#5e6062" d="M 309.5,543.5 C 313.577,543.735 317.577,544.402 321.5,545.5C 321.833,546.167 322.167,546.833 322.5,547.5C 321.095,552.405 320.429,557.405 320.5,562.5C 316.423,562.265 312.423,561.598 308.5,560.5C 308.167,559.5 307.833,558.5 307.5,557.5C 308.812,552.921 309.479,548.254 309.5,543.5 Z"/></g>
<g><path style="opacity:1" fill="#5e6062" d="M 516.5,543.5 C 518.833,543.5 521.167,543.5 523.5,543.5C 524.006,549.188 524.672,554.855 525.5,560.5C 521.124,560.909 516.79,561.575 512.5,562.5C 511.927,556.489 511.26,550.489 510.5,544.5C 512.735,544.795 514.735,544.461 516.5,543.5 Z"/></g>
<g><path style="opacity:1" fill="#8f9092" d="M 326.5,545.5 C 329.391,546.403 332.391,546.736 335.5,546.5C 334.927,552.511 334.26,558.511 333.5,564.5C 330.43,564.632 327.43,564.299 324.5,563.5C 323.307,563.03 322.64,562.03 322.5,560.5C 323.652,555.892 324.485,551.225 325,546.5C 325.383,545.944 325.883,545.611 326.5,545.5 Z"/></g>
<g><path style="opacity:1" fill="#8e8f92" d="M 505.5,545.5 C 506.931,545.881 507.764,546.881 508,548.5C 508.972,552.806 509.806,557.14 510.5,561.5C 510.253,562.713 509.586,563.38 508.5,563.5C 505.482,563.704 502.482,564.037 499.5,564.5C 498.665,558.832 498.165,553.165 498,547.5C 500.607,546.877 503.107,546.21 505.5,545.5 Z"/></g>
<g><path style="opacity:1" fill="#97989b" d="M 490.5,547.5 C 492.451,547.227 493.951,547.893 495,549.5C 495.998,554.82 496.831,560.153 497.5,565.5C 495.194,565.993 492.861,566.326 490.5,566.5C 489.193,560.266 489.193,553.932 490.5,547.5 Z"/></g>
<g><path style="opacity:1" fill="#919293" d="M 323.5,577.5 C 329.455,578.758 335.455,579.758 341.5,580.5C 342.369,582.717 342.702,585.05 342.5,587.5C 339.518,587.037 336.518,586.704 333.5,586.5C 328.833,585.167 324.167,583.833 319.5,582.5C 320.5,582.5 321.5,582.5 322.5,582.5C 322.629,580.784 322.962,579.117 323.5,577.5 Z"/></g>
<g><path style="opacity:1" fill="#939495" d="M 509.5,577.5 C 509.5,579.5 509.5,581.5 509.5,583.5C 503.285,585.343 496.951,586.677 490.5,587.5C 490.298,585.05 490.631,582.717 491.5,580.5C 497.539,579.716 503.539,578.716 509.5,577.5 Z"/></g>
<g><path style="opacity:1" fill="#d6d6d8" d="M 540.5,577.5 C 543.167,577.5 545.833,577.5 548.5,577.5C 549.075,589.492 549.409,601.492 549.5,613.5C 541.1,615.356 534.267,613.022 529,606.5C 528.5,597.84 528.334,589.173 528.5,580.5C 527.5,580.5 526.5,580.5 525.5,580.5C 530.256,578.882 535.256,577.882 540.5,577.5 Z"/></g>
<g><path style="opacity:1" fill="#d1d1d3" d="M 277.5,574.5 C 282.275,575.094 286.941,576.094 291.5,577.5C 291.5,589.5 291.5,601.5 291.5,613.5C 286.5,613.5 281.5,613.5 276.5,613.5C 276.289,600.478 276.622,587.478 277.5,574.5 Z"/></g>
<g><path style="opacity:1" fill="#c4c4c7" d="M 556.5,574.5 C 556.5,587.5 556.5,600.5 556.5,613.5C 554.167,613.5 551.833,613.5 549.5,613.5C 549.409,601.492 549.075,589.492 548.5,577.5C 545.833,577.5 543.167,577.5 540.5,577.5C 545.572,575.754 550.905,574.754 556.5,574.5 Z"/></g>
<g><path style="opacity:1" fill="#e6e7e8" d="M 616.5,578.5 C 621.587,578.284 622.587,580.118 619.5,584C 615.537,584.118 614.537,582.284 616.5,578.5 Z"/></g>
<g><path style="opacity:1" fill="#838587" d="M 412.5,520.5 C 413.167,535.5 413.833,550.5 414.5,565.5C 414.499,573.517 414.166,581.517 413.5,589.5C 413.167,589.5 412.833,589.5 412.5,589.5C 412.121,570.834 411.787,552.168 411.5,533.5C 412.485,529.366 412.818,525.032 412.5,520.5 Z"/></g>
<g><path style="opacity:1" fill="#dad4d6" d="M 333.5,586.5 C 336.518,586.704 339.518,587.037 342.5,587.5C 343.708,588.234 345.041,588.567 346.5,588.5C 346.5,591.5 346.5,594.5 346.5,597.5C 348.167,597.5 349.833,597.5 351.5,597.5C 355.371,597.185 359.038,597.518 362.5,598.5C 354.493,598.334 346.493,598.5 338.5,599C 336.899,599.273 335.399,599.773 334,600.5C 333.501,595.845 333.334,591.179 333.5,586.5 Z"/></g>
<g><path style="opacity:1" fill="#fc5253" d="M 346.5,588.5 C 347.708,589.234 349.041,589.567 350.5,589.5C 351.388,592.054 351.721,594.721 351.5,597.5C 349.833,597.5 348.167,597.5 346.5,597.5C 346.5,594.5 346.5,591.5 346.5,588.5 Z"/></g>
<g><path style="opacity:1" fill="#c9474d" d="M 350.5,589.5 C 355.833,589.5 361.167,589.5 366.5,589.5C 365.833,592.5 365.167,595.5 364.5,598.5C 363.833,598.5 363.167,598.5 362.5,598.5C 359.038,597.518 355.371,597.185 351.5,597.5C 351.721,594.721 351.388,592.054 350.5,589.5 Z"/></g>
<g><path style="opacity:1" fill="#a1a1a4" d="M 366.5,589.5 C 379.5,589.5 392.5,589.5 405.5,589.5C 405.5,589.833 405.5,590.167 405.5,590.5C 403.473,590.338 401.473,590.505 399.5,591C 399.957,591.414 400.291,591.914 400.5,592.5C 392.528,593.498 384.528,593.831 376.5,593.5C 376.5,595.5 376.5,597.5 376.5,599.5C 384.891,599.453 393.224,600.12 401.5,601.5C 395.681,602.167 390.014,602.833 384.5,603.5C 378.001,601.209 371.335,599.542 364.5,598.5C 365.167,595.5 365.833,592.5 366.5,589.5 Z"/></g>
<g><path style="opacity:1" fill="#818184" d="M 405.5,590.5 C 406.612,592.599 407.279,594.933 407.5,597.5C 407.833,599.5 408.167,601.5 408.5,603.5C 408.5,603.833 408.5,604.167 408.5,604.5C 409.159,607.455 409.492,610.455 409.5,613.5C 407.143,613.663 404.81,613.497 402.5,613C 396.916,609.041 390.916,605.875 384.5,603.5C 390.014,602.833 395.681,602.167 401.5,601.5C 393.224,600.12 384.891,599.453 376.5,599.5C 376.5,597.5 376.5,595.5 376.5,593.5C 384.528,593.831 392.528,593.498 400.5,592.5C 400.291,591.914 399.957,591.414 399.5,591C 401.473,590.505 403.473,590.338 405.5,590.5 Z"/></g>
<g><path style="opacity:1" fill="#fe5254" d="M 408.5,603.5 C 408.167,601.5 407.833,599.5 407.5,597.5C 408.5,597.5 409.5,597.5 410.5,597.5C 410.192,595.076 410.526,592.743 411.5,590.5C 412.492,594.783 412.826,599.116 412.5,603.5C 411.167,603.5 409.833,603.5 408.5,603.5 Z"/></g>
<g><path style="opacity:1" fill="#fb5758" d="M 422.5,589.5 C 425.833,589.5 429.167,589.5 432.5,589.5C 431.083,593.002 430.416,596.669 430.5,600.5C 428.287,601.773 425.954,602.773 423.5,603.5C 422.514,599.03 422.181,594.363 422.5,589.5 Z"/></g>
<g><path style="opacity:1" fill="#a0a1a3" d="M 432.5,589.5 C 445.5,589.5 458.5,589.5 471.5,589.5C 471.5,589.833 471.5,590.167 471.5,590.5C 469.5,590.5 467.5,590.5 465.5,590.5C 465.5,591.5 465.5,592.5 465.5,593.5C 457.5,593.5 449.5,593.5 441.5,593.5C 441.157,595.483 441.824,596.817 443.5,597.5C 439.308,598.608 434.975,599.608 430.5,600.5C 430.416,596.669 431.083,593.002 432.5,589.5 Z"/></g>
<g><path style="opacity:1" fill="#838385" d="M 471.5,590.5 C 472.778,594.791 473.778,599.124 474.5,603.5C 464.589,599.44 454.255,597.44 443.5,597.5C 441.824,596.817 441.157,595.483 441.5,593.5C 449.5,593.5 457.5,593.5 465.5,593.5C 465.5,592.5 465.5,591.5 465.5,590.5C 467.5,590.5 469.5,590.5 471.5,590.5 Z"/></g>
<g><path style="opacity:1" fill="#da5645" d="M 486.5,588.5 C 486.5,592.167 486.5,595.833 486.5,599.5C 482.303,600.232 478.303,601.566 474.5,603.5C 473.778,599.124 472.778,594.791 471.5,590.5C 471.5,590.167 471.5,589.833 471.5,589.5C 475.167,589.5 478.833,589.5 482.5,589.5C 483.708,588.766 485.041,588.433 486.5,588.5 Z"/></g>
<g><path style="opacity:1" fill="#c25053" d="M 405.5,590.5 C 405.5,590.167 405.5,589.833 405.5,589.5C 407.833,589.5 410.167,589.5 412.5,589.5C 412.833,589.5 413.167,589.5 413.5,589.5C 413.5,594.5 413.5,599.5 413.5,604.5C 411.833,604.5 410.167,604.5 408.5,604.5C 408.5,604.167 408.5,603.833 408.5,603.5C 409.833,603.5 411.167,603.5 412.5,603.5C 412.826,599.116 412.492,594.783 411.5,590.5C 410.526,592.743 410.192,595.076 410.5,597.5C 409.5,597.5 408.5,597.5 407.5,597.5C 407.279,594.933 406.612,592.599 405.5,590.5 Z"/></g>
<g><path style="opacity:1" fill="#222834" d="M 408.5,604.5 C 410.167,604.5 411.833,604.5 413.5,604.5C 413.5,606.5 413.5,608.5 413.5,610.5C 412.564,611.974 411.23,612.974 409.5,613.5C 409.492,610.455 409.159,607.455 408.5,604.5 Z"/></g>
<g><path style="opacity:1" fill="#1e2431" d="M 344.5,613.5 C 358.821,612.553 372.488,615.053 385.5,621C 389.619,623.29 393.286,626.124 396.5,629.5C 392.417,636.668 388.084,643.668 383.5,650.5C 365.799,635.521 347.466,634.688 328.5,648C 312.31,664.451 310.143,682.618 322,702.5C 336.542,719.451 354.042,723.285 374.5,714C 377.36,711.64 380.36,709.473 383.5,707.5C 387.235,712.626 390.735,717.959 394,723.5C 394.667,725.833 394.667,728.167 394,730.5C 366.496,749.578 339.33,749.078 312.5,729C 286.264,702.805 282.43,673.639 301,641.5C 312.236,626.973 326.736,617.64 344.5,613.5 Z"/></g>
<g><path style="opacity:1" fill="#1e2431" d="M 442.5,613.5 C 454.424,612.531 464.924,615.864 474,623.5C 488.55,611.441 504.05,610.274 520.5,620C 528.256,625.666 533.422,633.166 536,642.5C 536.5,675.498 536.667,708.498 536.5,741.5C 528.167,741.5 519.833,741.5 511.5,741.5C 511.667,709.832 511.5,678.165 511,646.5C 503,635.833 495,635.833 487,646.5C 486.5,678.165 486.333,709.832 486.5,741.5C 478.167,741.5 469.833,741.5 461.5,741.5C 461.667,710.498 461.5,679.498 461,648.5C 457.64,639.708 451.473,636.875 442.5,640C 439.567,642.264 437.4,645.098 436,648.5C 435.5,679.498 435.333,710.498 435.5,741.5C 427.167,741.5 418.833,741.5 410.5,741.5C 410.333,709.165 410.5,676.832 411,644.5C 415.461,627.871 425.961,617.538 442.5,613.5 Z"/></g>
<g><path style="opacity:1" fill="#1d2330" d="M 249.5,741.5 C 249.5,732.833 249.5,724.167 249.5,715.5C 232.325,715.17 215.325,715.503 198.5,716.5C 198.5,724.833 198.5,733.167 198.5,741.5C 190.167,741.5 181.833,741.5 173.5,741.5C 173.333,713.498 173.5,685.498 174,657.5C 180.151,631.845 196.317,617.845 222.5,615.5C 252.943,617.276 270.277,633.276 274.5,663.5C 274.237,689.482 274.237,715.482 274.5,741.5C 266.167,741.5 257.833,741.5 249.5,741.5 Z"/></g>
<g><path style="opacity:1" fill="#1e2431" d="M 599.5,615.5 C 629.159,613.712 648.659,626.712 658,654.5C 658.5,683.498 658.667,712.498 658.5,741.5C 650.167,741.5 641.833,741.5 633.5,741.5C 633.5,733.167 633.5,724.833 633.5,716.5C 616.833,716.5 600.167,716.5 583.5,716.5C 583.5,724.833 583.5,733.167 583.5,741.5C 575.167,741.5 566.833,741.5 558.5,741.5C 558.333,712.498 558.5,683.498 559,654.5C 564.892,633.492 578.392,620.492 599.5,615.5 Z"/></g>
<g><path style="opacity:1" fill="#fdfdfd" d="M 248.5,661.5 C 248.5,671.167 248.5,680.833 248.5,690.5C 231.833,690.5 215.167,690.5 198.5,690.5C 198.334,680.161 198.5,669.828 199,659.5C 207.002,640.831 220.169,635.998 238.5,645C 244.282,649.071 247.615,654.571 248.5,661.5 Z"/></g>
<g><path style="opacity:1" fill="#fdfdfd" d="M 633.5,690.5 C 616.833,690.5 600.167,690.5 583.5,690.5C 583.5,681.167 583.5,671.833 583.5,662.5C 587.186,645.976 597.519,638.809 614.5,641C 623.573,643.739 629.74,649.573 633,658.5C 633.5,669.161 633.667,679.828 633.5,690.5 Z"/></g>
<g><path style="opacity:1" fill="#8b8f95" d="M 248.5,661.5 C 249.494,671.319 249.827,681.319 249.5,691.5C 232.325,691.83 215.325,691.497 198.5,690.5C 215.167,690.5 231.833,690.5 248.5,690.5C 248.5,680.833 248.5,671.167 248.5,661.5 Z"/></g>
<g><path style="opacity:1" fill="#7c8088" d="M 583.5,662.5 C 583.5,671.833 583.5,681.167 583.5,690.5C 600.167,690.5 616.833,690.5 633.5,690.5C 616.675,691.497 599.675,691.83 582.5,691.5C 582.173,681.652 582.506,671.986 583.5,662.5 Z"/></g>
<g><path style="opacity:1" fill="#74777f" d="M 198.5,716.5 C 215.325,715.503 232.325,715.17 249.5,715.5C 249.5,724.167 249.5,732.833 249.5,741.5C 248.507,733.35 248.174,725.017 248.5,716.5C 231.833,716.5 215.167,716.5 198.5,716.5 Z"/></g>
<g><path style="opacity:1" fill="#234562" d="M 395.5,748.5 C 398.676,751.828 402.343,754.661 406.5,757C 417.167,757.667 427.833,757.667 438.5,757C 442.534,756.383 445.867,754.549 448.5,751.5C 449.308,751.808 449.975,752.308 450.5,753C 439.319,764.348 427.986,775.514 416.5,786.5C 405.681,776.181 395.014,765.681 384.5,755C 388.23,752.807 391.897,750.64 395.5,748.5 Z"/></g>
<g><path style="opacity:1" fill="#eff1f3" d="M 409.5,761.5 C 416.821,762.319 418.154,765.486 413.5,771C 406.075,770.484 404.742,767.318 409.5,761.5 Z"/></g>
</svg>
